<?xml version="1.0" encoding="UTF-8" standalone="no"?>
<!-- Created with Inkscape (http://www.inkscape.org/) -->

<svg
   width="64"
   height="64"
   viewBox="0 0 63.999999 64.000001"
   version="1.1"
   id="svg1"
   inkscape:export-filename="svg-test.svg"
   inkscape:export-xdpi="96"
   inkscape:export-ydpi="96"
   inkscape:version="1.4 (86a8ad7, 2024-10-11)"
   sodipodi:docname="mathlly-svg.svg"
   xmlns:inkscape="http://www.inkscape.org/namespaces/inkscape"
   xmlns:sodipodi="http://sodipodi.sourceforge.net/DTD/sodipodi-0.dtd"
   xmlns="http://www.w3.org/2000/svg"
   xmlns:svg="http://www.w3.org/2000/svg">
  <sodipodi:namedview
     id="namedview1"
     pagecolor="#ffffff"
     bordercolor="#999999"
     borderopacity="1"
     inkscape:showpageshadow="2"
     inkscape:pageopacity="0"
     inkscape:pagecheckerboard="0"
     inkscape:deskcolor="#d1d1d1"
     inkscape:document-units="px"
     inkscape:export-bgcolor="#ffffff05"
     inkscape:zoom="4.6640624"
     inkscape:cx="129.50084"
     inkscape:cy="39.772195"
     inkscape:window-width="1366"
     inkscape:window-height="705"
     inkscape:window-x="-8"
     inkscape:window-y="184"
     inkscape:window-maximized="1"
     inkscape:current-layer="layer1" />
  <defs
     id="defs1">
    <inkscape:path-effect
       effect="fillet_chamfer"
       id="path-effect3"
       is_visible="true"
       lpeversion="1"
       nodesatellites_param="F,0,0,1,0,0,0,1 @ F,0,0,1,0,0,0,1 @ F,0,0,1,0,0,0,1 @ F,0,0,1,0,0,0,1 @ F,0,0,1,0,0,0,1 @ F,0,0,1,0,0,0,1 @ F,0,0,1,0,0,0,1 @ F,0,0,1,0,0,0,1 @ F,0,0,1,0,0,0,1"
       radius="0"
       unit="px"
       method="auto"
       mode="F"
       chamfer_steps="1"
       flexible="false"
       use_knot_distance="true"
       apply_no_radius="true"
       apply_with_radius="true"
       only_selected="false"
       hide_knots="false" />
    <inkscape:path-effect
       effect="fillet_chamfer"
       id="path-effect2"
       is_visible="true"
       lpeversion="1"
       nodesatellites_param="F,0,0,1,0,9,0,1 @ F,0,0,1,0,10.868878,0,1 @ F,0,0,1,0,10.869455,0,1 @ F,0,0,1,0,10.56336,0,1"
       radius="0"
       unit="px"
       method="auto"
       mode="F"
       chamfer_steps="1"
       flexible="false"
       use_knot_distance="true"
       apply_no_radius="true"
       apply_with_radius="true"
       only_selected="false"
       hide_knots="false" />
    <rect
       x="10.915739"
       y="4.5482244"
       width="8.0351963"
       height="20.46701"
       id="rect1" />
    <rect
       x="3.3353646"
       y="3.4869721"
       width="8.8690376"
       height="9.2480564"
       id="rect3" />
    <rect
       x="0"
       y="17.359056"
       width="21.376656"
       height="22.741123"
       id="rect4" />
    <rect
       x="10.915739"
       y="4.5482244"
       width="8.0351963"
       height="20.46701"
       id="rect1-8" />
    <rect
       x="3.3353646"
       y="3.4869721"
       width="8.8690376"
       height="9.2480564"
       id="rect3-3" />
    <rect
       x="0"
       y="17.359056"
       width="21.376656"
       height="22.741123"
       id="rect4-4" />
  </defs>
  <g
     inkscape:label="Layer 1"
     inkscape:groupmode="layer"
     id="layer1"
     transform="translate(-201.77571,-153.73045)">
    <path
       id="path2"
       d="m 234.45513,201.93255 c -8.62558,1.44298 -21.65131,1.58363 -30.85486,0.39066 -5.88133,-0.76233 -12.65935,-7.489 -13.46639,-13.36438 -1.17566,-8.55895 -1.22086,-20.43884 -0.11038,-29.00662 0.76233,-5.88165 7.48933,-12.66001 13.36503,-13.46705 8.66043,-1.18953 20.72075,-1.22167 29.30952,-0.0703 5.71299,0.76586 12.31198,7.31485 13.12126,13.02187 1.30591,9.20913 1.27876,22.42804 -0.11376,31.15952 -0.7737,4.85128 -6.40515,10.52571 -11.25042,11.33629 z"
       style="fill:#f3f4f6;fill-opacity:1;fill-rule:evenodd;stroke:#e5e7eb;stroke-width:0.918096;stroke-linecap:butt;stroke-dasharray:none;stroke-opacity:1;paint-order:markers stroke fill"
       transform="matrix(1.0892111,0,0,1.0892111,-3.66982,-4.17249)"
       inkscape:path-effect="#path-effect3"
       inkscape:original-d="m 234.45513,201.93255 c -8.62558,1.44298 -21.65131,1.58363 -30.85486,0.39066 -5.88133,-0.76233 -12.65935,-7.489 -13.46639,-13.36438 -1.17566,-8.55895 -1.22086,-20.43884 -0.11038,-29.00662 0.76233,-5.88165 7.48933,-12.66001 13.36503,-13.46705 8.66043,-1.18953 20.72075,-1.22167 29.30952,-0.0703 5.71299,0.76586 12.31198,7.31485 13.12126,13.02187 1.30591,9.20913 1.27876,22.42804 -0.11376,31.15952 -0.7737,4.85128 -6.40515,10.52571 -11.25042,11.33629 z" />
    <path
       d="m 12.863281,11.940252 3.0625,-7.6640625 h 1.023438 l -3.078125,7.6640625 z"
       id="text1"
       style="font-size:8px;line-height:1;font-family:'Reddit Mono';-inkscape-font-specification:'Reddit Mono, @wght=800';font-variation-settings:'wght' 800;text-align:center;letter-spacing:0.11px;word-spacing:0.1px;white-space:pre;fill:#4f46e5;stroke-width:1.168;paint-order:markers stroke fill"
       aria-label="/"
       transform="matrix(6.7275297,0,0,6.7275297,133.49347,131.18216)" />
    <path
       d="m 7.7705078,6.3738457 q -0.1601562,0 -0.2617187,-0.109375 Q 7.4072266,6.1511895 7.4072266,5.987127 q 0,-0.1523438 0.082031,-0.4492188 0.082031,-0.296875 0.1484375,-0.703125 Q 7.5986328,4.5886895 7.5556641,4.4050957 7.5126953,4.221502 7.4775391,4.0847832 7.4462891,3.9480645 7.4267578,3.8504082 7.4072266,3.752752 7.4072266,3.6824395 q 0,-0.1601563 0.1015625,-0.2695313 0.1015625,-0.1132812 0.2617187,-0.1132812 0.1601563,0 0.2617188,0.1132812 0.1015625,0.109375 0.1015625,0.2695313 0,0.070312 -0.019531,0.1679687 -0.015625,0.097656 -0.050781,0.234375 -0.03125,0.1367188 -0.074219,0.3203125 -0.042969,0.1835938 -0.085937,0.4296875 0.066406,0.40625 0.1484375,0.703125 0.082031,0.296875 0.082031,0.4492188 0,0.1640625 -0.1015625,0.2773437 -0.1015625,0.109375 -0.2617188,0.109375 z M 6.9658203,5.7332207 Q 6.8447266,5.8035332 6.7001953,5.7800957 6.5556641,5.752752 6.4658203,5.6043145 6.3876953,5.4636895 6.4267578,5.3230645 6.4658203,5.1824395 6.6142578,5.096502 6.7509766,5.018377 7.0400391,4.9441582 7.3291016,4.8660332 7.7041016,4.7175957 7.8251953,4.612127 7.9462891,4.4949395 8.0712891,4.3738457 8.1884766,4.2644707 8.3056641,4.1511895 8.3994141,4.065252 q 0.097656,-0.085937 0.1601562,-0.1210938 0.140625,-0.078125 0.2851563,-0.050781 0.1445312,0.027344 0.2304687,0.1757812 0.082031,0.1367188 0.039063,0.28125 -0.039063,0.140625 -0.1875,0.2226563 Q 8.7978516,4.6511895 8.5166016,4.7254082 8.2392578,4.799627 7.8369141,4.9519707 7.5126953,5.2254082 7.3095703,5.440252 7.1064453,5.6511895 6.9658203,5.7332207 Z m 1.609375,0 Q 8.4384766,5.6511895 8.2314453,5.4363457 8.0244141,5.221502 7.7041016,4.9519707 7.3251953,4.8113457 7.0361328,4.7332207 6.7509766,4.6511895 6.6142578,4.5730645 6.4736328,4.4910332 6.4267578,4.3543145 6.3837891,4.2175957 6.4658203,4.0691582 6.5478516,3.924627 6.6923828,3.893377 q 0.1484375,-0.03125 0.2890625,0.050781 0.082031,0.046875 0.1914063,0.1523438 0.1132812,0.1015625 0.2734375,0.2617187 0.1601562,0.15625 0.390625,0.359375 0.2734375,0.109375 0.484375,0.1757813 0.2148437,0.0625 0.3632812,0.109375 0.1523438,0.042969 0.2421875,0.09375 0.1484375,0.085937 0.1875,0.2265625 0.042969,0.140625 -0.039063,0.28125 -0.089844,0.15625 -0.2382812,0.1757812 -0.1445313,0.019531 -0.2617188,-0.046875 z"
       id="text2"
       style="font-size:8px;line-height:1;font-family:'Reddit Mono';-inkscape-font-specification:'Reddit Mono, @wght=800';font-variation-settings:'wght' 800;text-align:center;letter-spacing:0.11px;word-spacing:0.1px;white-space:pre;fill:#4f46e5;stroke-width:0.5;stroke-opacity:0.885593;paint-order:markers stroke fill"
       aria-label="*"
       transform="matrix(3.7473987,0,0,3.7473987,196.00331,147.58532)" />
    <path
       d="m 10.680664,23.641424 q -0.320312,0 -0.542969,-0.21875 -0.2187497,-0.222656 -0.2187497,-0.550781 0,-0.324219 0.2187497,-0.542969 0.222657,-0.222656 0.542969,-0.222656 0.332031,0 0.554688,0.222656 0.222656,0.21875 0.222656,0.542969 0,0.328125 -0.222656,0.550781 -0.222657,0.21875 -0.554688,0.21875 z"
       id="text3"
       style="font-size:8px;line-height:1;font-family:'Reddit Mono';-inkscape-font-specification:'Reddit Mono, @wght=800';font-variation-settings:'wght' 800;text-align:center;letter-spacing:0.11px;word-spacing:0.1px;white-space:pre;opacity:0.877323;fill:#9ca3af;fill-opacity:0.0196078;stroke:#212121;stroke-width:0.323633;stroke-linecap:square;stroke-dasharray:2.58906, 0.647266, 0.323633, 0.647266;stroke-opacity:0.885593;paint-order:markers stroke fill"
       aria-label="."
       transform="matrix(5.8202215,0,0,5.8202215,179.88989,72.970428)" />
  </g>
</svg>
