<svg version="1.1" id="Layer_1" xmlns="http://www.w3.org/2000/svg" xmlns:xlink="http://www.w3.org/1999/xlink" x="0px" y="0px"
	 width="100%" viewBox="0 0 500 500" enable-background="new 0 0 500 500" xml:space="preserve">
<path fill="#FFFFFF" opacity="1.000000" stroke="none" 
	d="
M284.000000,501.000000 
	C189.333359,501.000000 95.166710,501.000000 1.000051,501.000000 
	C1.000034,334.333405 1.000034,167.666794 1.000017,1.000140 
	C167.666565,1.000093 334.333130,1.000093 500.999756,1.000047 
	C500.999847,167.666519 500.999847,334.333038 500.999939,500.999786 
	C428.833344,501.000000 356.666656,501.000000 284.000000,501.000000 
M409.009705,283.010529 
	C409.009705,283.010529 409.026764,282.960693 408.337585,282.707550 
	C397.927155,293.908264 385.566742,294.856293 371.194641,289.112732 
	C372.529327,293.849396 368.610413,299.161682 375.157806,302.671936 
	C379.510681,306.271393 384.372650,306.064148 389.590759,305.050018 
	C399.439606,303.135986 411.122955,293.335449 413.637909,284.911346 
	C414.439514,283.613556 415.241119,282.315765 416.042725,281.017975 
	C415.467072,280.788055 414.891418,280.558167 414.315765,280.328247 
	C413.866852,281.905182 413.417938,283.482147 412.398529,285.071655 
	C412.021576,285.123413 411.644623,285.175140 410.713287,284.862915 
	C410.485748,284.270721 410.258209,283.678528 410.043640,282.397888 
	C410.012085,281.940613 409.980560,281.483337 410.646729,280.930817 
	C411.760468,278.919067 412.874207,276.907349 414.261780,274.063446 
	C415.418793,272.926239 416.575775,271.789001 417.449677,271.631256 
	C416.999420,273.219879 416.549164,274.808502 416.098938,276.397095 
	C416.596497,276.567688 417.094086,276.738281 417.591675,276.908844 
	C418.217926,275.550842 419.147583,274.251312 419.422485,272.825531 
	C421.633850,261.356995 424.391632,249.930725 425.533569,238.348679 
	C426.023071,233.384003 426.344391,226.960571 420.371124,222.694580 
	C414.803528,215.811462 414.029541,215.817688 406.740295,222.098099 
	C409.257050,227.356979 412.731598,232.114777 413.812073,237.365265 
	C416.558319,250.710175 413.340149,263.081696 404.285706,274.072144 
	C403.762573,274.074524 403.239471,274.076874 402.554047,273.318329 
	C398.897339,258.749878 395.282959,244.170471 391.508148,229.632690 
	C391.186615,228.394379 389.795746,227.433746 388.740540,225.589478 
	C385.752258,219.447876 380.775116,224.247665 375.794800,222.130157 
	C379.587280,237.381409 383.035889,251.175339 386.441315,264.979919 
	C387.851929,270.698334 390.630676,275.389557 396.159027,278.938812 
	C399.468719,281.531372 403.013092,281.517395 406.844757,280.198547 
	C407.691010,279.907227 408.923340,280.737488 409.302856,281.239807 
	C409.188141,281.825256 409.073456,282.410736 409.009705,283.010529 
M265.829224,237.028458 
	C266.636017,236.096970 267.442780,235.165482 269.039856,234.141754 
	C271.688751,233.764236 274.337677,233.386719 277.495270,233.685150 
	C277.692505,236.304504 278.048401,238.923141 278.060211,241.543335 
	C278.118896,254.573822 278.086975,267.604706 278.086975,280.691284 
	C279.613159,280.897766 280.747681,281.051270 281.950287,282.018921 
	C285.371033,282.907928 288.791779,283.796906 292.886475,284.861023 
	C292.886475,268.625122 293.010956,253.932724 292.728149,239.248184 
	C292.692993,237.423325 290.496429,235.640091 288.867249,233.302917 
	C283.164703,224.619400 274.420105,223.381165 264.324280,230.118576 
	C263.347809,231.172089 262.371307,232.225586 260.946503,233.566788 
	C260.631256,233.709305 260.315979,233.851807 260.007660,233.057739 
	C260.007660,223.492096 260.007660,213.926453 260.007660,204.209427 
	C258.220886,204.513580 257.252197,204.678467 256.079681,204.107025 
	C255.968582,203.141922 255.857468,202.176834 255.746185,201.210205 
	C250.627350,202.973358 245.734589,204.658646 240.248779,206.548218 
	C245.498352,207.334717 244.928833,210.895447 244.935486,213.968704 
	C244.980881,234.945679 244.958771,255.922806 244.961182,276.899872 
	C244.961411,278.995758 244.420532,281.490814 248.098602,281.877228 
	C251.461975,286.348145 255.721924,282.918976 260.906342,284.256927 
	C260.906342,270.783020 260.906342,258.381134 261.451080,245.554611 
	C262.322357,243.386368 263.193634,241.218124 264.538879,238.727325 
	C264.757294,238.208130 264.975708,237.688950 265.829224,237.028458 
M128.014420,242.499832 
	C128.138794,242.777008 128.263168,243.054184 128.387527,243.331345 
	C128.512207,243.240585 128.750900,243.078522 128.745148,243.069336 
	C128.514893,242.701172 128.262482,242.346863 128.015976,241.280762 
	C127.747940,240.210464 127.479897,239.140152 127.101334,237.160141 
	C127.076218,229.584625 126.792107,221.996750 127.152252,214.439590 
	C127.298218,211.376785 129.183777,208.750305 133.499725,209.621506 
	C133.674591,210.255692 133.923996,210.879562 134.013535,211.525574 
	C137.033340,233.311829 140.077286,255.094925 142.992279,276.895264 
	C143.335938,279.465240 143.708710,281.457275 146.993622,281.982117 
	C150.400452,286.285370 154.675659,282.938995 159.218750,284.163879 
	C158.725632,280.653900 158.356537,278.093933 158.007477,275.531281 
	C155.269730,255.432312 152.699890,235.307678 149.632584,215.259155 
	C149.144852,212.071243 146.425522,209.224777 144.343689,205.679169 
	C141.094177,201.145264 136.778625,199.516159 131.348877,200.895050 
	C125.663574,202.338821 122.824097,206.291275 121.406021,211.981232 
	C123.406075,210.445374 125.112511,209.134995 126.952408,208.603638 
	C124.068329,214.811707 122.960938,221.211990 124.111351,227.984070 
	C123.127899,228.559418 122.144455,229.134750 121.161011,229.710098 
	C122.750732,232.150620 124.340454,234.591141 125.956284,237.532776 
	C125.963028,237.699890 125.969772,237.867020 125.876236,238.690521 
	C125.011467,239.469147 124.146698,240.247787 122.185921,242.013260 
	C124.912621,242.013260 126.449715,242.013260 128.014420,242.499832 
M237.608521,276.977112 
	C237.921890,276.427124 238.235260,275.877167 238.548645,275.327209 
	C238.045395,275.467346 237.542145,275.607513 236.335052,275.801575 
	C235.221161,275.536957 234.107269,275.272339 232.998993,274.069214 
	C232.998993,259.827362 232.998993,245.585510 232.998993,231.292618 
	C235.957458,231.036804 238.172821,230.845261 240.958862,230.604355 
	C239.519760,229.352615 238.603561,228.555695 237.279343,227.113434 
	C235.843384,226.904266 234.407425,226.695099 232.651428,226.439316 
	C232.651428,222.308334 232.651428,218.407394 232.651428,214.426514 
	C227.550507,216.174316 231.134995,211.178391 230.474503,210.992172 
	C224.338348,217.074646 218.675034,222.688416 213.425598,227.891937 
	C214.095078,227.975937 215.675781,228.174286 217.447952,228.396652 
	C217.620056,231.177124 217.894394,233.647324 217.905060,236.118668 
	C217.953079,247.257339 218.132767,258.401642 217.846207,269.533142 
	C217.684433,275.817078 219.814682,280.155884 226.037781,282.990845 
	C230.880249,286.087402 235.053635,284.918243 241.518723,279.023285 
	C240.217758,278.446808 238.625366,277.741180 237.016678,277.027466 
	C237.016678,277.027466 237.019897,277.018188 237.608521,276.977112 
M128.990875,253.783447 
	C129.010666,254.522064 129.030441,255.260666 128.385406,256.080322 
	C128.054932,256.974548 127.724449,257.868744 127.393967,258.762970 
	C128.241440,258.857056 129.088913,258.951172 129.991425,259.783234 
	C130.016541,260.522736 130.041656,261.262207 129.475098,262.020660 
	C129.278091,262.031891 129.081070,262.043121 128.139557,262.038513 
	C128.070480,263.822845 128.356369,265.716919 127.846664,267.364990 
	C127.134956,269.666138 125.829155,271.783569 124.777565,273.979614 
	C123.192375,272.347198 120.661697,270.949524 120.187950,269.041199 
	C118.278824,261.350861 116.803795,253.535187 115.543953,245.705383 
	C113.702766,234.262589 112.399742,222.731033 110.445854,211.309402 
	C109.315186,204.699951 104.383324,201.114822 97.757561,201.095261 
	C93.651695,201.083145 89.545769,201.093033 86.101860,201.093033 
	C87.659538,202.574173 89.430115,204.257751 91.083023,206.806503 
	C90.432053,211.550903 89.781075,216.295303 88.957619,221.811020 
	C85.246895,241.407700 81.536171,261.004364 77.795311,280.760193 
	C79.617378,280.950500 80.752769,281.069092 81.951187,282.010956 
	C82.700073,282.668365 83.437202,283.880493 84.199677,283.896667 
	C91.154594,284.044037 98.113914,283.983215 106.061630,283.983215 
	C104.154190,282.553772 103.129173,281.785645 101.962135,280.343475 
	C100.178101,278.925262 98.394073,277.507019 96.585663,275.358215 
	C95.225723,270.421692 93.476852,265.554474 92.581963,260.535034 
	C90.298599,247.727646 92.416443,235.026413 94.324181,222.376923 
	C94.756371,219.511230 96.088036,216.781189 96.997871,214.869858 
	C99.321907,230.330093 101.292839,245.855103 104.112900,261.224335 
	C105.613998,269.405243 109.389389,276.727264 118.087166,280.930267 
	C123.924454,284.698975 131.435349,283.291046 132.469528,277.607330 
	C134.180176,268.205597 132.522659,258.922150 128.306763,250.007339 
	C127.228951,250.443222 126.151138,250.879120 125.073326,251.315002 
	C125.130898,251.774399 125.188477,252.233795 125.246048,252.693192 
	C126.475388,252.810989 127.704727,252.928787 128.990875,253.783447 
M193.381165,230.320953 
	C190.295197,225.320068 185.218781,225.946472 180.528702,226.044647 
	C170.543243,226.253677 161.989990,232.951233 160.569031,241.894897 
	C165.569733,243.278091 170.636581,244.614548 175.651199,246.124557 
	C176.590805,246.407471 177.321442,247.384430 177.470047,248.224319 
	C173.194763,251.626801 168.346771,254.517929 164.759903,258.535095 
	C156.550797,267.729004 158.180115,275.434387 169.069427,282.147552 
	C175.228760,286.905029 181.849350,285.578247 188.302246,283.213959 
	C191.645905,281.988861 194.639557,279.808472 197.886032,278.840118 
	C198.922913,279.649902 199.959808,280.459717 201.039795,282.066467 
	C204.548080,286.146973 208.716751,283.102814 214.007675,284.181793 
	C209.457428,267.299683 205.379379,251.695633 200.871857,236.216629 
	C200.445175,234.751312 197.323532,234.070786 195.201096,232.479172 
	C194.697403,231.995865 194.193710,231.512573 193.381165,230.320953 
M473.031982,207.555832 
	C471.084229,194.168854 464.637543,187.963654 451.439453,187.318939 
	C449.689911,187.233459 447.848999,189.018921 446.050415,189.937943 
	C447.642059,190.930634 449.210876,191.963745 450.842163,192.886353 
	C451.228088,193.104630 451.825989,192.929138 452.322998,192.972870 
	C458.875214,193.549332 461.869720,196.673676 461.954285,203.276749 
	C461.981659,205.415817 461.616394,207.565903 461.355011,209.701691 
	C459.802734,222.385635 461.202271,234.333221 470.315826,244.198624 
	C472.635803,246.709930 475.398315,248.812408 478.000702,251.141434 
	C477.549316,251.672195 477.297333,252.124146 476.916351,252.393707 
	C468.002136,258.700928 462.466888,267.081390 461.915588,278.138519 
	C461.586426,284.740753 462.025635,291.378937 462.036316,298.001099 
	C462.048859,305.777130 459.513824,308.501831 451.874207,309.117126 
	C450.879883,309.197205 449.702667,309.004059 448.938721,309.472870 
	C447.822845,310.157593 447.004456,311.327087 446.059265,312.289978 
	C447.199615,313.192902 448.263489,314.752991 449.492310,314.895996 
	C460.425140,316.168427 470.111603,309.828033 471.979218,299.044281 
	C473.498901,290.269348 473.482361,281.212433 473.916992,272.269379 
	C474.517090,259.922058 479.270691,254.891464 491.547852,254.021881 
	C491.879669,253.998367 492.319733,254.140839 492.528839,253.976395 
	C493.594757,253.138336 494.601196,252.224655 495.628448,251.337402 
	C494.726074,250.299438 493.993805,248.966232 492.867310,248.317215 
	C491.971649,247.801193 490.593079,248.139069 489.430725,248.067719 
	C480.868927,247.542191 476.547546,244.085907 474.907532,235.728378 
	C474.114838,231.688705 474.118317,227.485413 473.860474,223.350037 
	C473.550507,218.378571 473.346130,213.400528 473.031982,207.555832 
M39.984848,300.105896 
	C39.659412,293.003479 38.960827,285.894257 39.089672,278.800079 
	C39.325581,265.811279 34.701202,255.533676 23.407213,248.344528 
	C24.029854,247.844528 24.495104,247.385635 25.036385,247.048996 
	C33.705307,241.657425 39.589008,234.328766 40.098286,223.803070 
	C40.433662,216.871460 39.987198,209.904312 39.973881,202.952927 
	C39.956577,193.921600 42.902512,190.892044 51.972645,189.871567 
	C53.376488,189.713623 54.623322,188.160110 55.942764,187.251984 
	C54.516003,186.245178 53.035404,184.299942 51.670887,184.378204 
	C39.417465,185.081116 30.696877,189.464432 29.066633,204.621613 
	C28.286526,211.874664 28.311520,219.219131 28.084105,226.525681 
	C27.714201,238.410126 23.203440,245.275726 11.156632,245.381851 
	C9.518062,245.396271 7.896994,247.397644 6.267823,248.479050 
	C7.805165,249.346527 9.270500,250.786469 10.891317,250.990356 
	C23.160433,252.533646 27.650179,257.400238 28.075493,269.928253 
	C28.323536,277.234558 28.429125,284.557098 29.023018,291.837738 
	C30.103054,305.078094 38.715816,312.573792 51.968410,311.928741 
	C53.337849,311.862061 54.639599,310.404968 55.972763,309.593048 
	C54.706322,308.667969 53.562897,307.277527 52.150616,306.904175 
	C47.722301,305.733643 42.699810,305.930023 39.984848,300.105896 
M302.038971,276.381683 
	C298.523773,286.503723 295.008575,296.625732 291.307159,307.284027 
	C293.826752,307.284027 295.668518,307.034943 297.417877,307.331421 
	C302.382690,308.172821 304.555603,306.163391 306.170746,301.333435 
	C313.645782,278.979523 321.599243,256.785522 329.388641,234.536819 
	C334.535645,219.835526 339.694977,205.138535 344.952850,190.142761 
	C340.508362,190.142761 336.546082,190.142761 332.324219,190.142761 
	C322.297089,218.672211 312.287659,247.151291 302.038971,276.381683 
M366.131012,243.830399 
	C372.370636,226.033157 378.610260,208.235931 384.949707,190.154022 
	C380.399200,190.154022 376.437225,190.154022 372.283264,190.154022 
	C358.660278,229.043655 345.072052,267.834015 331.252777,307.284027 
	C333.852509,307.284027 335.841919,307.034302 337.745148,307.333130 
	C342.526031,308.083740 344.590240,306.067291 346.114594,301.495483 
	C352.467499,282.442322 359.286163,263.544464 366.131012,243.830399 
M120.525017,220.544159 
	C121.238594,221.390701 121.952171,222.237244 122.804756,223.248688 
	C122.804756,219.930191 122.804756,216.862183 122.804756,213.794159 
	C122.314445,213.696381 121.824127,213.598587 121.333817,213.500793 
	C120.941734,215.631165 120.549652,217.761520 120.525017,220.544159 
M125.348259,245.425980 
	C125.474861,246.384354 125.601463,247.342712 125.728050,248.301071 
	C126.752762,247.784409 127.777481,247.267746 128.802200,246.751099 
	C127.866608,246.216660 126.931015,245.682220 125.348259,245.425980 
z"/>
<path fill="#B184FE" opacity="1.000000" stroke="none" 
	d="
M473.064026,207.990570 
	C473.346130,213.400528 473.550507,218.378571 473.860474,223.350037 
	C474.118317,227.485413 474.114838,231.688705 474.907532,235.728378 
	C476.547546,244.085907 480.868927,247.542191 489.430725,248.067719 
	C490.593079,248.139069 491.971649,247.801193 492.867310,248.317215 
	C493.993805,248.966232 494.726074,250.299438 495.628448,251.337418 
	C494.601196,252.224655 493.594757,253.138336 492.528839,253.976395 
	C492.319733,254.140839 491.879669,253.998367 491.547852,254.021881 
	C479.270691,254.891464 474.517090,259.922058 473.916992,272.269379 
	C473.482361,281.212433 473.498901,290.269348 471.979218,299.044281 
	C470.111603,309.828033 460.425140,316.168427 449.492310,314.895996 
	C448.263489,314.752991 447.199615,313.192902 446.059265,312.289978 
	C447.004456,311.327087 447.822845,310.157593 448.938721,309.472870 
	C449.702667,309.004059 450.879883,309.197205 451.874207,309.117126 
	C459.513824,308.501831 462.048859,305.777130 462.036316,298.001099 
	C462.025635,291.378937 461.586426,284.740753 461.915588,278.138519 
	C462.466888,267.081390 468.002136,258.700928 476.916351,252.393707 
	C477.297333,252.124146 477.549316,251.672195 478.000702,251.141434 
	C475.398315,248.812408 472.635803,246.709930 470.315826,244.198624 
	C461.202271,234.333221 459.802734,222.385635 461.355011,209.701691 
	C461.616394,207.565903 461.981659,205.415817 461.954285,203.276749 
	C461.869720,196.673676 458.875214,193.549332 452.322998,192.972870 
	C451.825989,192.929138 451.228088,193.104630 450.842163,192.886353 
	C449.210876,191.963745 447.642059,190.930634 446.050415,189.937927 
	C447.848999,189.018921 449.689911,187.233459 451.439453,187.318939 
	C464.637543,187.963654 471.084229,194.168854 473.064026,207.990570 
z"/>
<path fill="#B387FF" opacity="1.000000" stroke="none" 
	d="
M40.132988,300.482666 
	C42.699810,305.930023 47.722301,305.733643 52.150616,306.904175 
	C53.562897,307.277527 54.706322,308.667969 55.972763,309.593048 
	C54.639599,310.404968 53.337849,311.862061 51.968410,311.928741 
	C38.715816,312.573792 30.103054,305.078094 29.023018,291.837738 
	C28.429125,284.557098 28.323536,277.234558 28.075493,269.928253 
	C27.650179,257.400238 23.160433,252.533646 10.891317,250.990356 
	C9.270500,250.786469 7.805165,249.346527 6.267822,248.479034 
	C7.896994,247.397644 9.518062,245.396271 11.156632,245.381851 
	C23.203440,245.275726 27.714201,238.410126 28.084105,226.525681 
	C28.311520,219.219131 28.286526,211.874664 29.066633,204.621613 
	C30.696877,189.464432 39.417465,185.081116 51.670887,184.378204 
	C53.035404,184.299942 54.516003,186.245178 55.942764,187.251984 
	C54.623322,188.160110 53.376488,189.713623 51.972645,189.871567 
	C42.902512,190.892044 39.956577,193.921600 39.973881,202.952927 
	C39.987198,209.904312 40.433662,216.871460 40.098286,223.803070 
	C39.589008,234.328766 33.705307,241.657425 25.036385,247.048996 
	C24.495104,247.385635 24.029854,247.844528 23.407213,248.344528 
	C34.701202,255.533676 39.325581,265.811279 39.089672,278.800079 
	C38.960827,285.894257 39.659412,293.003479 40.132988,300.482666 
z"/>
<path fill="#EE6729" opacity="1.000000" stroke="none" 
	d="
M302.158630,276.006042 
	C312.287659,247.151291 322.297089,218.672211 332.324219,190.142761 
	C336.546082,190.142761 340.508362,190.142761 344.952850,190.142761 
	C339.694977,205.138535 334.535645,219.835526 329.388641,234.536819 
	C321.599243,256.785522 313.645782,278.979523 306.170746,301.333435 
	C304.555603,306.163391 302.382690,308.172821 297.417877,307.331421 
	C295.668518,307.034943 293.826752,307.284027 291.307159,307.284027 
	C295.008575,296.625732 298.523773,286.503723 302.158630,276.006042 
M304.772400,291.258484 
	C315.970154,259.206146 327.167908,227.153778 338.846375,193.725510 
	C336.682404,194.882690 335.453857,195.117706 335.244232,195.712067 
	C322.712799,231.246033 310.265289,266.809601 297.809784,302.370331 
	C298.574829,302.678345 299.339874,302.986359 300.104919,303.294403 
	C301.553131,299.522583 303.001312,295.750763 304.772400,291.258484 
z"/>
<path fill="#EE6729" opacity="1.000000" stroke="none" 
	d="
M366.032501,244.210022 
	C359.286163,263.544464 352.467499,282.442322 346.114594,301.495483 
	C344.590240,306.067291 342.526031,308.083740 337.745148,307.333130 
	C335.841919,307.034302 333.852509,307.284027 331.252777,307.284027 
	C345.072052,267.834015 358.660278,229.043655 372.283264,190.154022 
	C376.437225,190.154022 380.399200,190.154022 384.949707,190.154022 
	C378.610260,208.235931 372.370636,226.033157 366.032501,244.210022 
M348.075592,281.607849 
	C358.191498,252.742188 368.307404,223.876511 378.423340,195.010834 
	C377.569397,194.709961 376.715485,194.409088 375.861542,194.108215 
	C362.935303,230.087494 350.487579,266.239044 338.802032,302.721069 
	C343.821625,296.824799 344.908966,289.164551 348.075592,281.607849 
z"/>
<path fill="#8136FF" opacity="1.000000" stroke="none" 
	d="
M91.200684,205.941330 
	C89.430115,204.257751 87.659538,202.574173 86.101860,201.093033 
	C89.545769,201.093033 93.651695,201.083145 97.757561,201.095261 
	C104.383324,201.114822 109.315186,204.699951 110.445854,211.309402 
	C112.399742,222.731033 113.702766,234.262589 115.543953,245.705383 
	C116.803795,253.535187 118.278824,261.350861 120.187950,269.041199 
	C120.661697,270.949524 123.192375,272.347198 124.777565,273.979614 
	C125.829155,271.783569 127.134956,269.666138 127.846664,267.364990 
	C128.356369,265.716919 128.070480,263.822845 128.575836,262.458191 
	C128.895294,267.235596 128.778488,271.593292 128.405716,276.170593 
	C124.724403,277.672424 121.299042,278.954681 117.873672,280.236938 
	C109.389389,276.727264 105.613998,269.405243 104.112900,261.224335 
	C101.292839,245.855103 99.321907,230.330093 97.039139,214.043976 
	C96.173355,211.067993 95.266296,208.917892 94.282608,206.487885 
	C93.204216,206.119080 92.202446,206.030212 91.200684,205.941330 
z"/>
<path fill="#7E31FF" opacity="1.000000" stroke="none" 
	d="
M126.818939,207.824615 
	C125.112511,209.134995 123.406075,210.445374 121.406021,211.981232 
	C122.824097,206.291275 125.663574,202.338821 131.348877,200.895050 
	C136.778625,199.516159 141.094177,201.145264 144.577423,206.347778 
	C148.496460,231.406143 152.181732,255.795868 155.940933,280.674835 
	C152.130264,280.883423 149.514297,281.026642 146.898315,281.169830 
	C143.708710,281.457275 143.335938,279.465240 142.992279,276.895264 
	C140.077286,255.094925 137.033340,233.311829 134.013535,211.525574 
	C133.923996,210.879562 133.674591,210.255692 133.231934,208.965240 
	C131.966782,207.555542 130.969406,206.802109 129.735214,205.959061 
	C129.333496,205.905746 129.168610,205.942032 128.582489,205.933044 
	C127.738060,206.575729 127.314880,207.263657 126.895035,207.907516 
	C126.898376,207.863434 126.818947,207.824615 126.818939,207.824615 
z"/>
<path fill="#7D2FFF" opacity="1.000000" stroke="none" 
	d="
M247.942795,281.081085 
	C244.420532,281.490814 244.961411,278.995758 244.961182,276.899872 
	C244.958771,255.922806 244.980881,234.945679 244.935486,213.968704 
	C244.928833,210.895447 245.498352,207.334717 240.248779,206.548218 
	C245.734589,204.658646 250.627350,202.973358 255.746185,201.210205 
	C255.857468,202.176834 255.968582,203.141922 256.166443,204.954559 
	C256.256866,216.780319 256.260529,227.758545 256.169037,239.143539 
	C256.538818,240.697876 257.003693,241.845459 257.359070,243.409027 
	C256.703674,256.100739 256.157715,268.376495 255.592728,281.081085 
	C252.861008,281.081085 250.401901,281.081085 247.942795,281.081085 
z"/>
<path fill="#7E31FF" opacity="1.000000" stroke="none" 
	d="
M225.847900,282.310730 
	C219.814682,280.155884 217.684433,275.817078 217.846207,269.533142 
	C218.132767,258.401642 217.953079,247.257339 217.905060,236.118668 
	C217.894394,233.647324 217.620056,231.177124 217.447952,228.396652 
	C215.675781,228.174286 214.095078,227.975937 213.425598,227.891937 
	C218.675034,222.688416 224.338348,217.074646 230.474503,210.992172 
	C231.134995,211.178391 227.550507,216.174316 232.651428,214.426514 
	C232.651428,218.407394 232.651428,222.308334 232.651428,226.439316 
	C234.407425,226.695099 235.843384,226.904266 237.112976,227.434082 
	C235.963867,227.837051 234.981125,227.919373 233.768768,228.004761 
	C233.539139,228.007843 233.090164,228.104660 232.669006,228.054596 
	C231.231628,229.079651 229.350494,230.139771 229.331543,231.232208 
	C229.116714,243.615005 228.999420,256.008087 229.352570,268.384277 
	C229.416504,270.624908 231.722473,272.801544 232.993378,275.007751 
	C234.107269,275.272339 235.221161,275.536957 236.704758,276.092682 
	C237.056274,276.595245 237.038086,276.806732 237.019897,277.018188 
	C237.019897,277.018188 237.016678,277.027466 236.686737,277.109222 
	C232.853836,278.897552 229.350876,280.604156 225.847900,282.310730 
z"/>
<path fill="#8034FF" opacity="1.000000" stroke="none" 
	d="
M264.938690,229.914642 
	C274.420105,223.381165 283.164703,224.619400 288.997620,233.992340 
	C289.396851,246.405731 289.684448,258.129303 289.923126,269.853943 
	C289.996033,273.434753 289.934448,277.018280 289.934448,280.770294 
	C286.793243,280.939789 284.337708,281.072296 281.882202,281.204773 
	C280.747681,281.051270 279.613159,280.897766 278.086975,280.691284 
	C278.086975,267.604706 278.118896,254.573822 278.060211,241.543335 
	C278.048401,238.923141 277.692505,236.304504 277.137573,233.018433 
	C275.215424,231.536087 273.650940,230.720444 271.691956,229.849396 
	C269.540466,230.201218 267.783478,230.608414 265.790802,230.890350 
	C265.349640,230.481598 265.144165,230.198120 264.938690,229.914642 
z"/>
<path fill="#8034FF" opacity="1.000000" stroke="none" 
	d="
M395.988312,278.246765 
	C390.630676,275.389557 387.851929,270.698334 386.441315,264.979919 
	C383.035889,251.175339 379.587280,237.381409 375.794800,222.130157 
	C380.775116,224.247665 385.752258,219.447876 388.849792,226.371338 
	C392.514954,241.835434 396.020569,256.530396 399.724243,271.175262 
	C400.014252,272.322144 401.686493,273.119476 402.716339,274.079224 
	C403.239471,274.076874 403.762573,274.074524 405.029541,274.086365 
	C406.007385,274.131653 406.241394,274.162659 406.372559,274.438019 
	C406.196136,274.842926 406.122528,275.003510 405.717346,275.299683 
	C402.253326,276.372467 399.120819,277.309631 395.988312,278.246765 
z"/>
<path fill="#8238FF" opacity="1.000000" stroke="none" 
	d="
M406.475372,274.193695 
	C406.241394,274.162659 406.007385,274.131653 405.421265,274.063965 
	C413.340149,263.081696 416.558319,250.710175 413.812073,237.365265 
	C412.731598,232.114777 409.257050,227.356979 406.740295,222.098099 
	C414.029541,215.817688 414.803528,215.811462 420.544434,223.393768 
	C421.135864,227.858261 422.271912,231.709198 421.835114,235.372589 
	C420.608887,245.656921 418.734192,255.863937 417.009338,266.557922 
	C417.258209,268.199554 417.612946,269.384705 417.923706,270.566956 
	C417.879761,270.564026 417.732758,270.651764 417.732758,270.651764 
	C416.575775,271.789001 415.418793,272.926239 413.764984,274.537354 
	C412.687622,274.667419 412.107086,274.323639 411.732147,273.645569 
	C412.777771,270.546326 413.617737,267.781342 414.457733,265.016327 
	C414.183594,264.979187 413.909454,264.942047 413.635345,264.904877 
	C411.248688,268.001160 408.862030,271.097443 406.475372,274.193695 
z"/>
<path fill="#8238FF" opacity="1.000000" stroke="none" 
	d="
M96.610046,276.088806 
	C98.394073,277.507019 100.178101,278.925262 101.556900,280.679504 
	C94.730499,281.072937 88.309326,281.130310 81.888153,281.187683 
	C80.752769,281.069092 79.617378,280.950500 77.795311,280.760193 
	C81.536171,261.004364 85.246895,241.407700 89.434784,221.425293 
	C90.172592,221.038605 90.433228,221.037628 90.625282,221.495163 
	C90.350693,225.633224 90.144684,229.312790 89.967682,232.997742 
	C89.996696,233.003128 89.955086,232.961334 89.605064,233.157043 
	C89.057915,235.248917 88.860786,237.145081 88.430069,239.376953 
	C88.512833,246.791336 87.978027,254.049225 89.418732,260.891144 
	C90.541954,266.225281 94.121872,271.042084 96.610046,276.088806 
z"/>
<path fill="#FDFDFF" opacity="1.000000" stroke="none" 
	d="
M195.453064,233.025909 
	C197.323532,234.070786 200.445175,234.751312 200.871857,236.216629 
	C205.379379,251.695633 209.457428,267.299683 214.007675,284.181793 
	C208.716751,283.102814 204.548080,286.146973 201.467484,281.652008 
	C204.469528,281.237549 207.043884,281.237549 210.281677,281.237549 
	C206.292175,265.362244 202.511230,250.316879 198.730286,235.271500 
	C198.400192,235.367935 198.070084,235.464371 197.739990,235.560806 
	C197.739990,241.717743 197.739990,247.874680 197.512466,254.257629 
	C197.162079,254.889694 197.039215,255.295746 196.651306,255.691254 
	C195.927673,255.444901 195.469116,255.209091 194.872925,254.648239 
	C194.386749,254.013885 194.038208,253.704575 193.497284,253.114441 
	C191.214645,251.054092 189.124405,249.274567 187.414795,247.329697 
	C188.533615,246.156906 189.271820,245.149460 190.279068,243.941299 
	C192.895859,240.917511 190.257538,241.940521 189.255875,242.203690 
	C186.197357,243.007202 183.187988,243.997757 179.934540,244.673615 
	C178.483688,243.939484 177.257782,243.447266 176.005692,242.585938 
	C178.224075,234.880020 186.136551,231.145584 195.453064,233.025909 
M194.826279,245.973526 
	C194.729233,245.560181 194.632187,245.146851 194.535141,244.733490 
	C194.412552,244.824448 194.176086,244.931168 194.186142,245.003738 
	C194.244293,245.423355 194.360596,245.834885 194.826279,245.973526 
M192.250641,246.809067 
	C192.369583,246.971634 192.488541,247.134186 192.607483,247.296753 
	C192.582718,247.070267 192.557953,246.843765 192.250641,246.809067 
M193.235870,242.179916 
	C193.408005,242.122665 193.580154,242.065430 193.752289,242.008209 
	C193.578735,241.952515 193.405197,241.896820 193.235870,242.179916 
M195.243927,240.801376 
	C195.367340,240.969772 195.490738,241.138168 195.614136,241.306580 
	C195.587936,241.070877 195.561722,240.835159 195.243927,240.801376 
z"/>
<path fill="#8035FF" opacity="1.000000" stroke="none" 
	d="
M180.159500,244.915527 
	C183.187988,243.997757 186.197357,243.007202 189.255875,242.203690 
	C190.257538,241.940521 192.895859,240.917511 189.943817,243.998352 
	C188.201080,245.284134 187.062637,246.312149 185.786835,247.506454 
	C185.426239,247.864624 185.170715,247.991531 184.548279,248.099274 
	C178.121414,252.031342 173.381577,257.070374 171.546844,264.218414 
	C170.406143,268.662476 170.247711,273.111359 175.357178,276.122131 
	C179.085403,276.927216 182.545120,277.492371 186.023407,278.321960 
	C186.053635,278.762756 186.065323,278.939087 185.801392,279.364685 
	C179.981339,280.235962 174.436920,280.857971 168.892487,281.479980 
	C158.180115,275.434387 156.550797,267.729004 164.759903,258.535095 
	C168.346771,254.517929 173.194763,251.626801 178.089050,248.083527 
	C179.191879,246.933655 179.675690,245.924591 180.159500,244.915527 
z"/>
<path fill="#8035FF" opacity="1.000000" stroke="none" 
	d="
M197.739990,254.031616 
	C197.739990,247.874680 197.739990,241.717743 197.739990,235.560806 
	C198.070084,235.464371 198.400192,235.367935 198.730286,235.271500 
	C202.511230,250.316879 206.292175,265.362244 210.281677,281.237549 
	C207.043884,281.237549 204.469528,281.237549 201.445923,281.253540 
	C199.959808,280.459717 198.922913,279.649902 197.906006,277.997467 
	C197.898483,273.866577 197.870987,270.578308 197.873566,266.936707 
	C197.528992,266.042664 197.154327,265.502014 196.743622,264.592651 
	C196.136658,261.820831 195.565750,259.417664 194.998718,256.757263 
	C195.005234,255.991119 195.007889,255.482193 195.010544,254.973282 
	C195.469116,255.209091 195.927673,255.444901 196.895294,255.736298 
	C197.516220,255.205124 197.628098,254.618362 197.739990,254.031616 
M197.516678,258.410828 
	C197.516678,258.410828 197.584137,258.523254 197.516678,258.410828 
z"/>
<path fill="#8034FF" opacity="1.000000" stroke="none" 
	d="
M375.033966,301.955780 
	C368.610413,299.161682 372.529327,293.849396 371.194641,289.112732 
	C385.566742,294.856293 397.927155,293.908264 408.695129,283.313293 
	C409.340942,285.126831 409.629211,286.334625 409.668396,287.441589 
	C408.766907,287.865021 408.114532,288.389343 407.053284,288.696472 
	C406.029053,289.460846 405.413666,290.442474 404.489380,291.483765 
	C396.050659,299.452881 386.786041,304.185822 375.033966,301.955780 
z"/>
<path fill="#CBACFF" opacity="1.000000" stroke="none" 
	d="
M146.945969,281.575989 
	C149.514297,281.026642 152.130264,280.883423 155.940933,280.674835 
	C152.181732,255.795868 148.496460,231.406143 144.774536,206.618423 
	C146.425522,209.224777 149.144852,212.071243 149.632584,215.259155 
	C152.699890,235.307678 155.269730,255.432312 158.007477,275.531281 
	C158.356537,278.093933 158.725632,280.653900 159.218750,284.163879 
	C154.675659,282.938995 150.400452,286.285370 146.945969,281.575989 
z"/>
<path fill="#8238FF" opacity="1.000000" stroke="none" 
	d="
M179.934540,244.673615 
	C179.675690,245.924591 179.191879,246.933655 178.428284,247.991913 
	C177.321442,247.384430 176.590805,246.407471 175.651199,246.124557 
	C170.636581,244.614548 165.569733,243.278091 160.569031,241.894897 
	C161.989990,232.951233 170.543243,226.253677 180.528702,226.044647 
	C185.218781,225.946472 190.295197,225.320068 193.071289,230.591980 
	C185.103348,228.442535 177.320892,230.555817 173.571808,236.158249 
	C171.361298,239.461502 171.357452,242.085541 176.031876,242.955032 
	C177.257782,243.447266 178.483688,243.939484 179.934540,244.673615 
z"/>
<path fill="#C6A4FF" opacity="1.000000" stroke="none" 
	d="
M232.996185,274.538452 
	C231.722473,272.801544 229.416504,270.624908 229.352570,268.384277 
	C228.999420,256.008087 229.116714,243.615005 229.331543,231.232208 
	C229.350494,230.139771 231.231628,229.079651 232.744354,228.261566 
	C233.493362,228.346298 233.745880,228.173996 233.998398,228.001694 
	C234.981125,227.919373 235.963867,227.837051 237.316971,227.756744 
	C238.603561,228.555695 239.519760,229.352615 240.958862,230.604355 
	C238.172821,230.845261 235.957458,231.036804 232.998993,231.292618 
	C232.998993,245.585510 232.998993,259.827362 232.996185,274.538452 
z"/>
<path fill="#9C62FF" opacity="1.000000" stroke="none" 
	d="
M96.597855,275.723511 
	C94.121872,271.042084 90.541954,266.225281 89.418732,260.891144 
	C87.978027,254.049225 88.512833,246.791336 88.879456,239.341309 
	C89.693306,236.967087 89.824196,234.964218 89.955086,232.961334 
	C89.955086,232.961334 89.996696,233.003128 90.376274,232.935974 
	C92.151848,225.960785 93.665436,219.072952 94.856773,212.129822 
	C95.136078,210.502060 94.325165,208.687256 94.101410,206.910339 
	C94.186989,206.862167 94.359245,206.767807 94.359245,206.767807 
	C95.266296,208.917892 96.173355,211.067993 97.043045,213.603394 
	C96.088036,216.781189 94.756371,219.511230 94.324181,222.376923 
	C92.416443,235.026413 90.298599,247.727646 92.581963,260.535034 
	C93.476852,265.554474 95.225723,270.421692 96.597855,275.723511 
z"/>
<path fill="#C6A4FF" opacity="1.000000" stroke="none" 
	d="
M248.020691,281.479156 
	C250.401901,281.081085 252.861008,281.081085 255.592728,281.081085 
	C256.157715,268.376495 256.703674,256.100739 257.527344,243.220795 
	C258.390411,242.029434 258.975800,241.442291 259.693848,241.229263 
	C259.888702,242.392670 259.950897,243.181976 260.020508,244.264526 
	C260.320709,245.031601 260.613525,245.505417 260.906342,245.979248 
	C260.906342,258.381134 260.906342,270.783020 260.906342,284.256927 
	C255.721924,282.918976 251.461975,286.348145 248.020691,281.479156 
z"/>
<path fill="#CCAEFF" opacity="1.000000" stroke="none" 
	d="
M417.115265,266.101440 
	C418.734192,255.863937 420.608887,245.656921 421.835114,235.372589 
	C422.271912,231.709198 421.135864,227.858261 420.697571,223.684464 
	C426.344391,226.960571 426.023071,233.384003 425.533569,238.348679 
	C424.391632,249.930725 421.633850,261.356995 419.422485,272.825531 
	C419.147583,274.251312 418.217926,275.550842 417.591675,276.908844 
	C417.094086,276.738281 416.596497,276.567688 416.098938,276.397095 
	C416.549164,274.808502 416.999420,273.219879 417.591217,271.141510 
	C417.732758,270.651764 417.879761,270.564026 417.930481,270.161194 
	C417.692566,268.539398 417.403900,267.320435 417.115265,266.101440 
z"/>
<path fill="#CCAEFF" opacity="1.000000" stroke="none" 
	d="
M281.916260,281.611847 
	C284.337708,281.072296 286.793243,280.939789 289.934448,280.770294 
	C289.934448,277.018280 289.996033,273.434753 289.923126,269.853943 
	C289.684448,258.129303 289.396851,246.405731 289.214722,234.259644 
	C290.496429,235.640091 292.692993,237.423325 292.728149,239.248184 
	C293.010956,253.932724 292.886475,268.625122 292.886475,284.861023 
	C288.791779,283.796906 285.371033,282.907928 281.916260,281.611847 
z"/>
<path fill="#CBACFF" opacity="1.000000" stroke="none" 
	d="
M407.462158,288.913635 
	C408.114532,288.389343 408.766907,287.865021 409.902740,287.192078 
	C410.680023,286.437897 410.973846,285.832397 411.267670,285.226868 
	C411.644623,285.175140 412.021576,285.123413 412.698425,285.035248 
	C412.998291,284.998840 412.941101,285.034698 412.941101,285.034698 
	C411.122955,293.335449 399.439606,303.135986 389.590759,305.050018 
	C384.372650,306.064148 379.510681,306.271393 375.095886,302.313843 
	C386.786041,304.185822 396.050659,299.452881 404.844788,291.329987 
	C406.160065,290.382233 406.811096,289.647949 407.462158,288.913635 
z"/>
<path fill="#8238FF" opacity="1.000000" stroke="none" 
	d="
M402.635193,273.698792 
	C401.686493,273.119476 400.014252,272.322144 399.724243,271.175262 
	C396.020569,256.530396 392.514954,241.835434 388.930328,226.748657 
	C389.795746,227.433746 391.186615,228.394379 391.508148,229.632690 
	C395.282959,244.170471 398.897339,258.749878 402.635193,273.698792 
z"/>
<path fill="#E3D3FF" opacity="1.000000" stroke="none" 
	d="
M197.843491,267.290070 
	C197.870987,270.578308 197.898483,273.866577 197.858643,277.607239 
	C194.639557,279.808472 191.645905,281.988861 188.302246,283.213959 
	C181.849350,285.578247 175.228760,286.905029 168.980957,281.813782 
	C174.436920,280.857971 179.981339,280.235962 186.138763,279.321899 
	C188.169647,278.003723 189.587509,276.977600 191.005676,275.979340 
	C191.005981,276.007172 190.951202,275.997284 191.221512,275.938721 
	C191.655502,275.570831 191.819183,275.261505 191.991791,274.976501 
	C192.000702,275.000854 191.952103,274.982819 192.225357,274.937500 
	C192.662537,274.578522 192.826447,274.264832 192.996765,273.977234 
	C193.003159,274.003296 192.949966,273.996063 193.268402,273.893921 
	C194.047852,272.846954 194.508881,271.902130 194.985367,270.978210 
	C195.000809,270.999146 194.951370,270.983215 195.266388,270.924316 
	C196.335434,269.673645 197.089462,268.481842 197.843491,267.290070 
z"/>
<path fill="#CCAEFF" opacity="1.000000" stroke="none" 
	d="
M256.264160,238.736786 
	C256.260529,227.758545 256.256866,216.780319 256.268372,205.322723 
	C257.252197,204.678467 258.220886,204.513580 260.007660,204.209427 
	C260.007660,213.926453 260.007660,223.492096 259.888306,233.842712 
	C258.600708,235.997375 257.432434,237.367081 256.264160,238.736786 
z"/>
<path fill="#CCAEFF" opacity="1.000000" stroke="none" 
	d="
M117.980423,280.583618 
	C121.299042,278.954681 124.724403,277.672424 128.806656,276.180725 
	C134.477554,271.522552 130.821533,266.699493 130.066772,262.001709 
	C130.041656,261.262207 130.016541,260.522736 129.988037,259.074127 
	C129.673187,257.576447 129.361710,256.787872 129.050232,255.999283 
	C129.030441,255.260666 129.010666,254.522064 128.987579,253.035583 
	C128.997375,251.530060 129.010483,250.772400 129.023575,250.014740 
	C132.522659,258.922150 134.180176,268.205597 132.469528,277.607330 
	C131.435349,283.291046 123.924454,284.698975 117.980423,280.583618 
z"/>
<path fill="#CBACFF" opacity="1.000000" stroke="none" 
	d="
M176.005692,242.585938 
	C171.357452,242.085541 171.361298,239.461502 173.571808,236.158249 
	C177.320892,230.555817 185.103348,228.442535 193.225708,230.946136 
	C194.193710,231.512573 194.697403,231.995865 195.327087,232.752533 
	C186.136551,231.145584 178.224075,234.880020 176.005692,242.585938 
z"/>
<path fill="#F6F0FF" opacity="1.000000" stroke="none" 
	d="
M411.526520,273.979828 
	C412.107086,274.323639 412.687622,274.667419 413.628052,274.953430 
	C412.874207,276.907349 411.760468,278.919067 410.323181,280.965118 
	C409.999603,280.999420 409.977875,281.051300 409.977875,281.051300 
	C408.923340,280.737488 407.691010,279.907227 406.844757,280.198547 
	C403.013092,281.517395 399.468719,281.531372 396.073669,278.592804 
	C399.120819,277.309631 402.253326,276.372467 405.759064,275.598145 
	C407.930389,275.167267 409.728455,274.573547 411.526520,273.979828 
z"/>
<path fill="#D4BAFF" opacity="1.000000" stroke="none" 
	d="
M129.972046,206.048676 
	C130.969406,206.802109 131.966782,207.555542 133.003708,208.640717 
	C129.183777,208.750305 127.298218,211.376785 127.152252,214.439590 
	C126.792107,221.996750 127.076218,229.584625 126.846619,237.609955 
	C126.386772,238.051208 126.181648,238.042679 125.976524,238.034164 
	C125.969772,237.867020 125.963028,237.699890 125.966278,236.931946 
	C125.658157,235.229065 125.340034,234.127014 125.016037,232.653961 
	C124.983894,231.544098 124.957642,230.805252 124.949722,229.711273 
	C124.932236,228.883301 124.896408,228.410461 124.860580,227.937622 
	C122.960938,221.211990 124.068329,214.811707 126.885681,208.214127 
	C126.818947,207.824615 126.898376,207.863434 127.205582,207.921310 
	C128.000916,207.641632 128.489029,207.304077 129.194809,206.877060 
	C129.683304,206.605148 129.869827,206.358841 129.972046,206.048676 
z"/>
<path fill="#CCAEFF" opacity="1.000000" stroke="none" 
	d="
M81.919670,281.599335 
	C88.309326,281.130310 94.730499,281.072937 101.627914,281.016541 
	C103.129173,281.785645 104.154190,282.553772 106.061630,283.983215 
	C98.113914,283.983215 91.154594,284.044037 84.199677,283.896667 
	C83.437202,283.880493 82.700073,282.668365 81.919670,281.599335 
z"/>
<path fill="#CCAEFF" opacity="1.000000" stroke="none" 
	d="
M225.942841,282.650787 
	C229.350876,280.604156 232.853836,278.897552 236.694901,277.113281 
	C238.625366,277.741180 240.217758,278.446808 241.518723,279.023285 
	C235.053635,284.918243 230.880249,286.087402 225.942841,282.650787 
z"/>
<path fill="#9C62FF" opacity="1.000000" stroke="none" 
	d="
M90.693863,221.036652 
	C90.433228,221.037628 90.172592,221.038605 89.521027,221.039642 
	C89.781075,216.295303 90.432053,211.550903 91.141853,206.373917 
	C92.202446,206.030212 93.204216,206.119080 94.282608,206.487885 
	C94.359245,206.767807 94.186989,206.862167 93.735016,207.064362 
	C92.419975,211.856583 91.556915,216.446625 90.693863,221.036652 
z"/>
<path fill="#F1E8FF" opacity="1.000000" stroke="none" 
	d="
M129.770935,262.011169 
	C130.821533,266.699493 134.477554,271.522552 129.062607,275.961121 
	C128.778488,271.593292 128.895294,267.235596 128.948090,262.466125 
	C129.081070,262.043121 129.278091,262.031891 129.770935,262.011169 
z"/>
<path fill="#F1E8FF" opacity="1.000000" stroke="none" 
	d="
M120.341293,220.218018 
	C120.549652,217.761520 120.941734,215.631165 121.333817,213.500793 
	C121.824127,213.598587 122.314445,213.696381 122.804756,213.794159 
	C122.804756,216.862183 122.804756,219.930191 122.804756,223.248688 
	C121.952171,222.237244 121.238594,221.390701 120.341293,220.218018 
z"/>
<path fill="#F1E8FF" opacity="1.000000" stroke="none" 
	d="
M125.021919,233.024963 
	C125.340034,234.127014 125.658157,235.229065 125.953232,236.681396 
	C124.340454,234.591141 122.750732,232.150620 121.161011,229.710083 
	C122.144455,229.134750 123.127899,228.559418 124.485962,227.960846 
	C124.896408,228.410461 124.932236,228.883301 124.712326,229.889923 
	C124.645035,231.290787 124.833481,232.157867 125.021919,233.024963 
z"/>
<path fill="#9C62FF" opacity="1.000000" stroke="none" 
	d="
M256.169037,239.143539 
	C257.432434,237.367081 258.600708,235.997375 259.884857,234.311005 
	C260.315979,233.851807 260.631256,233.709305 261.375122,233.678955 
	C261.959961,233.939758 262.116150,234.088394 262.125732,234.560852 
	C261.173157,236.874817 260.367157,238.864975 259.561157,240.855148 
	C258.975800,241.442291 258.390411,242.029434 257.636810,242.804810 
	C257.003693,241.845459 256.538818,240.697876 256.169037,239.143539 
z"/>
<path fill="#D4BAFF" opacity="1.000000" stroke="none" 
	d="
M272.086487,229.904816 
	C273.650940,230.720444 275.215424,231.536087 276.883240,232.680450 
	C274.337677,233.386719 271.688751,233.764236 268.557922,234.104156 
	C268.075989,234.066559 267.912598,233.889145 268.076111,233.611145 
	C269.521942,232.190369 270.804230,231.047592 272.086487,229.904816 
z"/>
<path fill="#F1E8FF" opacity="1.000000" stroke="none" 
	d="
M125.671844,245.286865 
	C126.931015,245.682220 127.866608,246.216660 128.802185,246.751099 
	C127.777481,247.267746 126.752762,247.784409 125.728058,248.301086 
	C125.601463,247.342712 125.474861,246.384354 125.671844,245.286865 
z"/>
<path fill="#F1E8FF" opacity="1.000000" stroke="none" 
	d="
M125.926376,238.362335 
	C126.181648,238.042679 126.386772,238.051208 126.901886,238.064804 
	C127.479897,239.140152 127.747940,240.210464 128.007660,241.640717 
	C127.999336,242.000671 127.986809,242.013260 127.986809,242.013260 
	C126.449715,242.013260 124.912621,242.013260 122.185921,242.013260 
	C124.146698,240.247787 125.011467,239.469147 125.926376,238.362335 
z"/>
<path fill="#D4BAFF" opacity="1.000000" stroke="none" 
	d="
M261.178711,245.766937 
	C260.613525,245.505417 260.320709,245.031601 260.289612,244.060974 
	C261.689240,242.031845 262.827209,240.499527 263.989685,238.988373 
	C264.014191,239.009537 264.064911,239.049881 264.064911,239.049881 
	C263.193634,241.218124 262.322357,243.386368 261.178711,245.766937 
z"/>
<path fill="#F1E8FF" opacity="1.000000" stroke="none" 
	d="
M128.665161,250.011047 
	C129.010483,250.772400 128.997375,251.530060 128.959167,252.667145 
	C127.704727,252.928787 126.475388,252.810989 125.246048,252.693192 
	C125.188477,252.233795 125.130898,251.774399 125.073326,251.315002 
	C126.151138,250.879120 127.228951,250.443222 128.665161,250.011047 
z"/>
<path fill="#F6F0FF" opacity="1.000000" stroke="none" 
	d="
M412.983643,285.028961 
	C413.417938,283.482147 413.866852,281.905182 414.315765,280.328247 
	C414.891418,280.558167 415.467072,280.788055 416.042725,281.017975 
	C415.241119,282.315765 414.439514,283.613556 413.289490,284.973022 
	C412.941101,285.034698 412.998291,284.998840 412.983643,285.028961 
z"/>
<path fill="#F1E8FF" opacity="1.000000" stroke="none" 
	d="
M128.717819,256.039795 
	C129.361710,256.787872 129.673187,257.576447 129.960526,258.705139 
	C129.088913,258.951172 128.241440,258.857056 127.393967,258.762970 
	C127.724449,257.868744 128.054932,256.974548 128.717819,256.039795 
z"/>
<path fill="#9C62FF" opacity="1.000000" stroke="none" 
	d="
M264.631470,230.016602 
	C265.144165,230.198120 265.349640,230.481598 265.604034,231.138077 
	C264.526093,232.419724 263.399231,233.328384 262.272339,234.237061 
	C262.116150,234.088394 261.959961,233.939758 261.599304,233.535110 
	C262.371307,232.225586 263.347809,231.172089 264.631470,230.016602 
z"/>
<path fill="#D4BAFF" opacity="1.000000" stroke="none" 
	d="
M268.162781,234.150269 
	C267.442780,235.165482 266.636017,236.096970 265.446289,237.043503 
	C265.063354,237.058548 264.931641,236.948532 264.986664,236.619690 
	C265.998657,235.490280 266.955627,234.689713 267.912598,233.889145 
	C267.912598,233.889145 268.075989,234.066559 268.162781,234.150269 
z"/>
<path fill="#F6F0FF" opacity="1.000000" stroke="none" 
	d="
M410.990479,285.044922 
	C410.973846,285.832397 410.680023,286.437897 410.151855,287.292908 
	C409.629211,286.334625 409.340942,285.126831 409.039734,283.439880 
	C409.026764,282.960693 409.009705,283.010529 409.244690,283.114929 
	C409.663361,283.174988 409.847015,283.130676 410.030640,283.086365 
	C410.258209,283.678528 410.485748,284.270721 410.990479,285.044922 
z"/>
<path fill="#C6A4FF" opacity="1.000000" stroke="none" 
	d="
M237.314209,276.997650 
	C237.038086,276.806732 237.056274,276.595245 237.056671,276.065735 
	C237.542145,275.607513 238.045395,275.467346 238.548645,275.327209 
	C238.235260,275.877167 237.921890,276.427124 237.314209,276.997650 
z"/>
<path fill="#F1E8FF" opacity="1.000000" stroke="none" 
	d="
M128.006134,241.995712 
	C128.262482,242.346863 128.514893,242.701172 128.745148,243.069336 
	C128.750900,243.078522 128.512207,243.240585 128.387543,243.331360 
	C128.263168,243.054184 128.138794,242.777008 128.000610,242.256546 
	C127.986809,242.013260 127.999336,242.000671 128.006134,241.995712 
z"/>
<path fill="#D4BAFF" opacity="1.000000" stroke="none" 
	d="
M265.128723,237.114151 
	C264.975708,237.688950 264.757294,238.208130 264.301880,238.888611 
	C264.064911,239.049881 264.014191,239.009537 263.995941,238.689850 
	C264.295654,237.896286 264.613647,237.422409 264.931641,236.948517 
	C264.931641,236.948532 265.063354,237.058548 265.128723,237.114151 
z"/>
<path fill="#8034FF" opacity="1.000000" stroke="none" 
	d="
M410.037140,282.742126 
	C409.847015,283.130676 409.663361,283.174988 409.219238,283.107727 
	C409.073456,282.410736 409.188141,281.825256 409.640381,281.145569 
	C409.977875,281.051300 409.999603,280.999420 409.974304,281.012756 
	C409.980560,281.483337 410.012085,281.940613 410.037140,282.742126 
z"/>
<path fill="#FDF1EC" opacity="1.000000" stroke="none" 
	d="
M304.610962,291.618713 
	C303.001312,295.750763 301.553131,299.522583 300.104919,303.294403 
	C299.339874,302.986359 298.574829,302.678345 297.809784,302.370331 
	C310.265289,266.809601 322.712799,231.246033 335.244232,195.712067 
	C335.453857,195.117706 336.682404,194.882690 338.846375,193.725510 
	C327.167908,227.153778 315.970154,259.206146 304.610962,291.618713 
z"/>
<path fill="#FDF1EC" opacity="1.000000" stroke="none" 
	d="
M347.976135,281.986755 
	C344.908966,289.164551 343.821625,296.824799 338.802032,302.721069 
	C350.487579,266.239044 362.935303,230.087494 375.861542,194.108215 
	C376.715485,194.409088 377.569397,194.709961 378.423340,195.010834 
	C368.307404,223.876511 358.191498,252.742188 347.976135,281.986755 
z"/>
<path fill="#FFFFFF" opacity="1.000000" stroke="none" 
	d="
M128.977142,206.966522 
	C128.489029,207.304077 128.000916,207.641632 127.202248,207.965393 
	C127.314880,207.263657 127.738060,206.575729 128.575607,206.180115 
	C128.989975,206.472427 128.977142,206.966522 128.977142,206.966522 
z"/>
<path fill="#F1E8FF" opacity="1.000000" stroke="none" 
	d="
M129.194809,206.877060 
	C128.977142,206.966522 128.989975,206.472427 128.996857,206.225372 
	C129.168610,205.942032 129.333496,205.905746 129.735214,205.959061 
	C129.869827,206.358841 129.683304,206.605148 129.194809,206.877060 
z"/>
<path fill="#FFFFFF" opacity="1.000000" stroke="none" 
	d="
M233.768768,228.004761 
	C233.745880,228.173996 233.493362,228.346298 233.165497,228.311630 
	C233.090164,228.104660 233.539139,228.007843 233.768768,228.004761 
z"/>
<path fill="#F6F0FF" opacity="1.000000" stroke="none" 
	d="
M264.986664,236.619675 
	C264.613647,237.422409 264.295654,237.896286 263.971436,238.668686 
	C262.827209,240.499527 261.689240,242.031845 260.282227,243.767715 
	C259.950897,243.181976 259.888702,242.392670 259.693848,241.229263 
	C260.367157,238.864975 261.173157,236.874817 262.125732,234.560852 
	C263.399231,233.328384 264.526093,232.419724 265.839722,231.263336 
	C267.783478,230.608414 269.540466,230.201218 271.691956,229.849411 
	C270.804230,231.047592 269.521942,232.190369 268.076111,233.611145 
	C266.955627,234.689713 265.998657,235.490280 264.986664,236.619675 
z"/>
<path fill="#FFFFFF" opacity="1.000000" stroke="none" 
	d="
M411.732147,273.645569 
	C409.728455,274.573547 407.930389,275.167267 406.090637,275.462524 
	C406.122528,275.003510 406.196136,274.842926 406.372559,274.438019 
	C408.862030,271.097443 411.248688,268.001160 413.635345,264.904877 
	C413.909454,264.942047 414.183594,264.979187 414.457733,265.016327 
	C413.617737,267.781342 412.777771,270.546326 411.732147,273.645569 
z"/>
<path fill="#FFFFFF" opacity="1.000000" stroke="none" 
	d="
M417.009338,266.557922 
	C417.403900,267.320435 417.692566,268.539398 417.974457,270.164124 
	C417.612946,269.384705 417.258209,268.199554 417.009338,266.557922 
z"/>
<path fill="#FFFFFF" opacity="1.000000" stroke="none" 
	d="
M90.625275,221.495163 
	C91.556915,216.446625 92.419975,211.856583 93.649429,207.112518 
	C94.325165,208.687256 95.136078,210.502060 94.856773,212.129822 
	C93.665436,219.072952 92.151848,225.960785 90.347260,232.930573 
	C90.144684,229.312790 90.350693,225.633224 90.625275,221.495163 
z"/>
<path fill="#FFFFFF" opacity="1.000000" stroke="none" 
	d="
M89.605064,233.157043 
	C89.824196,234.964218 89.693306,236.967087 89.113037,239.005615 
	C88.860786,237.145081 89.057915,235.248917 89.605064,233.157043 
z"/>
<path fill="#8238FF" opacity="1.000000" stroke="none" 
	d="
M184.882904,248.053482 
	C185.170715,247.991531 185.426239,247.864624 185.975754,247.539825 
	C186.302017,247.406906 186.658005,247.535126 186.658005,247.535126 
	C186.658005,247.535126 187.034164,247.495041 187.034164,247.495041 
	C189.124405,249.274567 191.214645,251.054092 193.279968,253.286072 
	C193.126907,253.868546 192.998764,253.998581 192.570068,254.017029 
	C190.881531,252.887329 189.493530,251.869217 187.926300,250.599228 
	C186.792358,249.582718 185.837631,248.818100 184.882904,248.053482 
z"/>
<path fill="#F6F0FF" opacity="1.000000" stroke="none" 
	d="
M187.414795,247.329697 
	C187.034164,247.495041 186.658005,247.535126 186.658005,247.535126 
	C186.658005,247.535126 186.302017,247.406906 186.113098,247.373535 
	C187.062637,246.312149 188.201080,245.284134 189.674774,244.199066 
	C189.271820,245.149460 188.533615,246.156906 187.414795,247.329697 
z"/>
<path fill="#8238FF" opacity="1.000000" stroke="none" 
	d="
M194.872925,254.648239 
	C195.007889,255.482193 195.005234,255.991119 194.746002,256.587646 
	C193.949799,255.826385 193.410202,254.977509 192.870621,254.128616 
	C192.998764,253.998581 193.126907,253.868546 193.472366,253.566879 
	C194.038208,253.704575 194.386749,254.013885 194.872925,254.648239 
z"/>
<path fill="#F6F0FF" opacity="1.000000" stroke="none" 
	d="
M194.641754,246.111328 
	C194.360596,245.834885 194.244293,245.423355 194.186142,245.003738 
	C194.176086,244.931168 194.412552,244.824448 194.535156,244.733490 
	C194.632187,245.146851 194.729233,245.560181 194.641754,246.111328 
z"/>
<path fill="#F6F0FF" opacity="1.000000" stroke="none" 
	d="
M197.512466,254.257629 
	C197.628098,254.618362 197.516220,255.205124 197.160355,255.746826 
	C197.039215,255.295746 197.162079,254.889694 197.512466,254.257629 
z"/>
<path fill="#F6F0FF" opacity="1.000000" stroke="none" 
	d="
M192.391907,246.713165 
	C192.557953,246.843765 192.582718,247.070267 192.607483,247.296753 
	C192.488541,247.134186 192.369583,246.971634 192.391907,246.713165 
z"/>
<path fill="#F6F0FF" opacity="1.000000" stroke="none" 
	d="
M193.233765,242.010529 
	C193.405197,241.896820 193.578735,241.952515 193.752289,242.008209 
	C193.580154,242.065430 193.408005,242.122665 193.233765,242.010529 
z"/>
<path fill="#F6F0FF" opacity="1.000000" stroke="none" 
	d="
M195.389725,240.700409 
	C195.561722,240.835159 195.587936,241.070877 195.614136,241.306580 
	C195.490738,241.138168 195.367340,240.969772 195.389725,240.700409 
z"/>
<path fill="#FDFDFF" opacity="1.000000" stroke="none" 
	d="
M192.570068,254.017029 
	C193.410202,254.977509 193.949799,255.826385 194.742126,256.844910 
	C195.565750,259.417664 196.136658,261.820831 196.513474,264.855164 
	C195.863373,267.318634 195.407379,269.150940 194.951370,270.983215 
	C194.951370,270.983215 195.000809,270.999146 194.626801,270.969177 
	C193.818512,271.958160 193.384247,272.977112 192.949982,273.996063 
	C192.949966,273.996063 193.003159,274.003296 192.654541,273.902710 
	C192.187973,274.195709 192.070038,274.589264 191.952103,274.982819 
	C191.952103,274.982819 192.000702,275.000854 191.647339,274.906830 
	C191.179703,275.207642 191.065460,275.602448 190.951202,275.997284 
	C190.951202,275.997284 191.005981,276.007172 190.665771,275.842041 
	C188.885315,276.470428 187.445084,277.263977 186.004852,278.057556 
	C182.545120,277.492371 179.085403,276.927216 175.331787,275.677612 
	C173.679291,263.852661 179.052307,256.355865 188.105545,250.851105 
	C189.493530,251.869217 190.881531,252.887329 192.570068,254.017029 
z"/>
<path fill="#CBACFF" opacity="1.000000" stroke="none" 
	d="
M187.926300,250.599228 
	C179.052307,256.355865 173.679291,263.852661 175.063263,275.437683 
	C170.247711,273.111359 170.406143,268.662476 171.546844,264.218414 
	C173.381577,257.070374 178.121414,252.031342 184.548279,248.099274 
	C185.837631,248.818100 186.792358,249.582718 187.926300,250.599228 
z"/>
<path fill="#9C62FF" opacity="1.000000" stroke="none" 
	d="
M186.023407,278.321991 
	C187.445084,277.263977 188.885315,276.470428 190.665466,275.814209 
	C189.587509,276.977600 188.169647,278.003723 186.414383,279.072632 
	C186.065323,278.939087 186.053635,278.762756 186.023407,278.321991 
z"/>
<path fill="#9C62FF" opacity="1.000000" stroke="none" 
	d="
M195.266388,270.924316 
	C195.407379,269.150940 195.863373,267.318634 196.549530,265.223846 
	C197.154327,265.502014 197.528992,266.042664 197.873566,266.936707 
	C197.089462,268.481842 196.335434,269.673645 195.266388,270.924316 
z"/>
<path fill="#8238FF" opacity="1.000000" stroke="none" 
	d="
M197.550415,258.467041 
	C197.584137,258.523254 197.516678,258.410828 197.550415,258.467041 
z"/>
<path fill="#F6F0FF" opacity="1.000000" stroke="none" 
	d="
M407.053284,288.696442 
	C406.811096,289.647949 406.160065,290.382233 405.153656,291.270294 
	C405.413666,290.442474 406.029053,289.460846 407.053284,288.696442 
z"/>
<path fill="#9C62FF" opacity="1.000000" stroke="none" 
	d="
M193.268402,273.893921 
	C193.384247,272.977112 193.818512,271.958160 194.611359,270.948242 
	C194.508881,271.902130 194.047852,272.846954 193.268402,273.893921 
z"/>
<path fill="#9C62FF" opacity="1.000000" stroke="none" 
	d="
M192.225357,274.937500 
	C192.070038,274.589264 192.187973,274.195709 192.648132,273.876648 
	C192.826447,274.264832 192.662537,274.578522 192.225357,274.937500 
z"/>
<path fill="#9C62FF" opacity="1.000000" stroke="none" 
	d="
M191.221512,275.938721 
	C191.065460,275.602448 191.179703,275.207642 191.638412,274.882507 
	C191.819183,275.261505 191.655502,275.570831 191.221512,275.938721 
z"/>
<path fill="#FFFFFF" opacity="1.000000" stroke="none" 
	d="
M125.016037,232.653961 
	C124.833481,232.157867 124.645035,231.290787 124.693985,230.245056 
	C124.957642,230.805252 124.983894,231.544098 125.016037,232.653961 
z"/>
</svg>