<svg version="1.1" id="Layer_1" xmlns="http://www.w3.org/2000/svg" xmlns:xlink="http://www.w3.org/1999/xlink" x="0px" y="0px"
	 width="100%" viewBox="0 0 500 500" enable-background="new 0 0 500 500" xml:space="preserve">
<path fill="#FFFFFF" opacity="1.000000" stroke="none" 
	d="
M269.000000,501.000000 
	C179.333359,501.000000 90.166710,501.000000 1.000048,501.000000 
	C1.000032,334.333405 1.000032,167.666794 1.000016,1.000137 
	C167.666565,1.000092 334.333130,1.000092 500.999756,1.000046 
	C500.999847,167.666519 500.999847,334.333038 500.999939,500.999786 
	C423.833344,501.000000 346.666656,501.000000 269.000000,501.000000 
M214.931656,216.528900 
	C214.657486,221.620148 214.383316,226.711380 214.036621,232.525497 
	C214.717926,233.822739 215.399246,235.119995 216.298706,236.832626 
	C217.035217,235.110138 217.466339,234.101822 217.944397,233.935822 
	C217.990036,235.624039 218.035675,237.312271 217.394775,238.998138 
	C216.850174,239.579697 216.305573,240.161255 215.760956,240.742813 
	C216.801224,240.860870 217.841507,240.978928 218.945862,241.875793 
	C218.964417,242.917191 218.982971,243.958603 218.401627,245.059525 
	C218.075287,245.625702 217.748962,246.191879 217.422623,246.758057 
	C218.240143,246.867371 219.057678,246.976669 219.937088,247.812439 
	C219.947662,248.541107 219.958237,249.269791 219.282959,249.994675 
	C218.663589,250.328613 218.044235,250.662552 217.424881,250.996506 
	C218.588272,251.675720 219.751663,252.354919 220.961060,253.681778 
	C220.959793,254.114380 220.958527,254.546967 220.225540,254.991730 
	C219.526917,255.466049 218.828278,255.940353 218.129654,256.414673 
	C218.791107,256.954590 219.452560,257.494537 219.988571,258.790466 
	C219.906006,260.030853 219.662567,261.285400 219.770203,262.509033 
	C220.132462,266.627625 220.789352,270.726654 220.996902,274.850128 
	C221.125992,277.414520 220.593857,279.967621 216.939941,279.126373 
	C214.199799,261.149780 211.403503,243.181442 208.750839,225.191940 
	C207.857910,219.136353 205.181808,214.333237 199.647018,210.365051 
	C197.199051,209.276245 194.825348,207.529449 192.286835,207.242905 
	C187.748154,206.730591 183.110092,207.098633 179.408630,207.098633 
	C180.988953,208.798477 182.848541,210.798706 184.338226,213.631531 
	C183.607193,218.441666 182.876160,223.251816 181.994049,228.835556 
	C178.372711,247.992142 174.751389,267.148712 171.115768,286.380981 
	C173.240692,287.026947 175.074051,287.584259 177.157654,288.614685 
	C177.487366,289.034973 177.817062,289.455231 178.103851,290.734314 
	C178.783569,291.810974 179.434418,293.800781 180.147491,293.823334 
	C187.430862,294.053711 194.724319,293.964294 202.504898,293.964294 
	C200.530426,292.232300 199.189041,291.055664 197.523544,289.334747 
	C196.661453,288.238037 195.799362,287.141327 194.429855,285.783905 
	C193.843964,285.303894 193.258072,284.823914 192.775146,283.547852 
	C187.718399,270.177673 188.349472,256.406616 190.049911,242.598923 
	C190.188400,241.474319 191.641571,240.511597 192.705109,240.293732 
	C193.186539,244.063263 193.562271,247.849899 194.168610,251.599228 
	C196.223190,264.303741 197.617020,277.315002 209.235199,286.591949 
	C210.227203,287.338593 211.219193,288.085236 212.377167,289.517761 
	C216.276794,293.170654 220.799042,294.191467 225.674393,292.042023 
	C230.420822,289.949341 230.510605,285.446472 229.919708,281.291718 
	C228.290054,269.833435 225.929703,258.469879 224.581726,246.983948 
	C223.703827,239.503403 223.925659,231.870911 224.090027,224.315964 
	C224.114304,223.199814 226.545990,222.136032 227.999603,221.912354 
	C230.771637,242.472794 233.487595,263.041321 236.446777,283.574799 
	C236.636108,284.888519 238.708740,285.930878 240.047180,287.799408 
	C241.024109,288.541840 242.001022,289.284271 243.113220,290.794250 
	C244.619736,291.863312 246.015610,293.575897 247.657394,293.858185 
	C250.475723,294.342773 253.447601,293.934387 256.251251,294.652649 
	C256.035278,295.616608 255.819321,296.580597 255.600952,297.555328 
	C265.700317,299.018555 265.691589,299.015503 268.835022,290.032898 
	C279.038483,260.875916 289.252472,231.722610 299.443420,202.561264 
	C299.844574,201.413315 300.051270,200.197418 300.437866,198.657440 
	C298.763123,198.657440 297.578705,198.833588 296.465240,198.627197 
	C291.459534,197.699295 289.245605,199.808731 287.768738,204.681915 
	C284.544678,215.320465 280.584930,225.737854 276.863159,236.223373 
	C270.034698,255.461441 263.161041,274.683472 256.114929,292.946960 
	C255.759750,291.329559 255.286255,289.727966 255.067322,288.092316 
	C252.329758,267.640411 249.785843,247.160324 246.765930,226.750534 
	C246.257401,223.313705 243.733841,220.175034 241.940277,216.269760 
	C240.716034,215.103149 239.491776,213.936539 237.953461,212.169968 
	C236.966736,211.046371 236.100143,209.781586 234.973145,208.822861 
	C229.083008,203.812119 218.916840,206.775650 217.011963,214.001831 
	C217.011963,214.001831 216.997726,213.949341 216.271759,213.980270 
	C215.985291,214.641434 215.698822,215.302597 214.931656,216.528900 
M355.346252,275.580963 
	C355.561401,278.066437 355.810089,280.549500 355.985657,283.037781 
	C356.625427,292.104858 355.566956,293.427246 346.785034,295.572205 
	C345.721985,295.831848 344.963623,297.338745 344.064026,298.267578 
	C345.078430,298.846313 346.060883,299.858948 347.112213,299.936432 
	C357.349304,300.690643 364.212860,293.769348 364.867645,282.124786 
	C365.203613,276.149261 365.239746,270.150482 365.768188,264.193878 
	C366.388367,257.203491 369.676880,254.362854 376.686371,253.568237 
	C378.329834,253.381927 379.843567,252.051071 381.416962,251.246780 
	C379.841980,250.278015 378.346527,248.658112 376.678070,248.454254 
	C369.787567,247.612259 366.369995,244.670563 365.763611,237.758179 
	C365.241028,231.800842 365.206757,225.802261 364.864624,219.827194 
	C364.216339,208.504471 358.163788,202.058167 348.058746,202.094589 
	C346.724243,202.099396 345.393616,203.191452 344.061157,203.779938 
	C345.309082,204.722977 346.449371,206.258774 347.823242,206.508270 
	C354.378540,207.698730 355.614105,208.986237 355.464386,215.744202 
	C355.386932,219.239685 355.163940,222.731659 355.051056,226.226669 
	C354.756165,235.357635 358.486023,242.659836 365.255127,248.572601 
	C366.189453,249.388718 367.092529,250.240601 368.053040,251.115036 
	C358.736816,258.738617 356.216675,263.481873 355.346252,275.580963 
M138.926331,255.586105 
	C137.272400,254.032593 135.618454,252.479080 133.945465,250.907669 
	C145.005692,241.695145 146.383591,238.597763 146.002411,224.137619 
	C145.945419,221.975555 145.833160,219.814270 145.812607,217.652008 
	C145.737213,209.718079 146.939407,208.307144 154.612854,206.454224 
	C155.822632,206.162079 156.799866,204.906967 157.884628,204.097107 
	C156.628036,203.398865 155.391312,202.136810 154.111694,202.091705 
	C144.046112,201.736832 137.720627,208.227081 137.067093,219.396118 
	C136.708084,225.531616 136.703812,231.698273 136.090454,237.805771 
	C135.382980,244.850296 132.107437,247.556778 125.106400,248.386246 
	C123.374962,248.591385 121.800888,250.124603 120.154465,251.047348 
	C121.747673,251.892380 123.273956,253.283310 124.945648,253.488251 
	C132.311844,254.391296 135.334473,256.930298 136.123138,264.374023 
	C136.734436,270.143860 136.735748,275.977631 137.031723,281.781769 
	C137.607407,293.070953 142.919205,299.213104 152.964081,299.801697 
	C154.562836,299.895386 156.241501,298.625336 157.883240,297.985809 
	C156.392471,297.076508 154.994461,295.630554 153.394348,295.354004 
	C147.530411,294.340546 145.179871,292.116913 144.975235,286.185822 
	C144.826218,281.866760 144.909653,277.532471 145.069977,273.211670 
	C145.308472,266.784851 143.635941,261.047668 138.926331,255.586105 
M307.297791,276.988953 
	C316.417389,251.068253 325.536987,225.147552 334.701965,199.097855 
	C324.229401,197.897095 324.251038,197.904663 321.116425,206.860809 
	C314.864929,224.722397 308.577606,242.571457 302.323547,260.432159 
	C297.999939,272.779755 293.707184,285.138123 289.285309,297.822540 
	C293.056763,297.822540 296.347046,297.822540 300.033386,297.822540 
	C302.356598,291.183838 304.709320,284.460846 307.297791,276.988953 
z"/>
<path fill="#8139FF" opacity="1.000000" stroke="none" 
	d="
M217.062134,279.937561 
	C220.593857,279.967621 221.125992,277.414520 220.996902,274.850128 
	C220.789352,270.726654 220.132462,266.627625 219.770203,262.509033 
	C219.662567,261.285400 219.906006,260.030853 220.272949,258.402008 
	C220.557343,258.013550 221.000778,257.993927 221.025543,258.294312 
	C221.314987,259.101288 221.579666,259.607880 221.878052,260.545868 
	C222.494873,265.515167 223.422546,270.045258 223.525955,274.594086 
	C223.583755,277.136810 222.705093,279.939606 221.492767,282.224243 
	C218.712677,287.463409 213.425552,285.592377 208.981537,286.021179 
	C197.617020,277.315002 196.223190,264.303741 194.168610,251.599228 
	C193.562271,247.849899 193.186539,244.063263 192.603638,239.585602 
	C192.368118,238.285782 192.234085,237.694122 192.091797,236.758377 
	C192.035995,235.958405 191.988464,235.502502 191.996735,234.661194 
	C191.686691,232.854416 191.320862,231.433060 190.968292,229.572418 
	C190.054443,224.369568 189.127304,219.606003 188.186310,214.498779 
	C187.400284,213.737549 186.628143,213.319946 185.662933,212.931396 
	C185.216446,212.904221 184.962540,212.850388 184.708130,212.798950 
	C182.848541,210.798706 180.988953,208.798477 179.408630,207.098633 
	C183.110092,207.098633 187.748154,206.730591 192.286835,207.242905 
	C194.825348,207.529449 197.199051,209.276245 199.884583,211.060516 
	C202.087112,224.257599 203.803070,236.805237 206.101303,249.245285 
	C207.737198,258.100311 209.962524,266.864868 212.388794,275.540070 
	C212.882034,277.303619 215.450409,278.486816 217.062134,279.937561 
z"/>
<path fill="#8139FF" opacity="1.000000" stroke="none" 
	d="
M239.905243,287.099487 
	C238.708740,285.930878 236.636108,284.888519 236.446777,283.574799 
	C233.487595,263.041321 230.771637,242.472794 227.974823,221.123260 
	C227.574448,219.203568 227.198853,218.072952 226.855499,216.653030 
	C226.654694,215.856735 226.421646,215.349747 226.113083,214.519470 
	C225.025848,213.463028 224.014114,212.729904 222.634857,211.895599 
	C220.498688,212.536148 218.730026,213.277863 216.961365,214.019562 
	C218.916840,206.775650 229.083008,203.812119 234.973145,208.822861 
	C236.100143,209.781586 236.966736,211.046371 238.050293,212.875244 
	C238.783188,216.656662 239.573914,219.710098 240.029297,222.812759 
	C242.360184,238.693649 244.633301,254.583206 246.863205,270.478638 
	C247.609879,275.801147 248.169220,281.149963 248.888245,287.099487 
	C245.487457,287.099487 242.696350,287.099487 239.905243,287.099487 
z"/>
<path fill="#A974FE" opacity="1.000000" stroke="none" 
	d="
M355.344666,275.134949 
	C356.216675,263.481873 358.736816,258.738617 368.053040,251.115036 
	C367.092529,250.240601 366.189453,249.388718 365.255127,248.572601 
	C358.486023,242.659836 354.756165,235.357635 355.051056,226.226669 
	C355.163940,222.731659 355.386932,219.239685 355.464386,215.744202 
	C355.614105,208.986237 354.378540,207.698730 347.823242,206.508270 
	C346.449371,206.258774 345.309082,204.722977 344.061157,203.779938 
	C345.393616,203.191452 346.724243,202.099396 348.058746,202.094589 
	C358.163788,202.058167 364.216339,208.504471 364.864624,219.827194 
	C365.206757,225.802261 365.241028,231.800842 365.763611,237.758179 
	C366.369995,244.670563 369.787567,247.612259 376.678070,248.454254 
	C378.346527,248.658112 379.841980,250.278015 381.416962,251.246780 
	C379.843567,252.051071 378.329834,253.381927 376.686371,253.568237 
	C369.676880,254.362854 366.388367,257.203491 365.768188,264.193878 
	C365.239746,270.150482 365.203613,276.149261 364.867645,282.124786 
	C364.212860,293.769348 357.349304,300.690643 347.112213,299.936432 
	C346.060883,299.858948 345.078430,298.846313 344.064026,298.267578 
	C344.963623,297.338745 345.721985,295.831848 346.785034,295.572205 
	C355.566956,293.427246 356.625427,292.104858 355.985657,283.037781 
	C355.810089,280.549500 355.561401,278.066437 355.344666,275.134949 
z"/>
<path fill="#A978FF" opacity="1.000000" stroke="none" 
	d="
M139.165878,255.858215 
	C143.635941,261.047668 145.308472,266.784851 145.069977,273.211670 
	C144.909653,277.532471 144.826218,281.866760 144.975235,286.185822 
	C145.179871,292.116913 147.530411,294.340546 153.394348,295.354004 
	C154.994461,295.630554 156.392471,297.076508 157.883240,297.985809 
	C156.241501,298.625336 154.562836,299.895386 152.964081,299.801697 
	C142.919205,299.213104 137.607407,293.070953 137.031723,281.781769 
	C136.735748,275.977631 136.734436,270.143860 136.123138,264.374023 
	C135.334473,256.930298 132.311844,254.391296 124.945648,253.488251 
	C123.273956,253.283310 121.747673,251.892380 120.154465,251.047333 
	C121.800888,250.124603 123.374962,248.591385 125.106400,248.386246 
	C132.107437,247.556778 135.382980,244.850296 136.090454,237.805771 
	C136.703812,231.698273 136.708084,225.531616 137.067093,219.396118 
	C137.720627,208.227081 144.046112,201.736832 154.111694,202.091705 
	C155.391312,202.136810 156.628036,203.398865 157.884628,204.097107 
	C156.799866,204.906967 155.822632,206.162079 154.612854,206.454224 
	C146.939407,208.307144 145.737213,209.718079 145.812607,217.652008 
	C145.833160,219.814270 145.945419,221.975555 146.002411,224.137619 
	C146.383591,238.597763 145.005692,241.695145 133.945465,250.907669 
	C135.618454,252.479080 137.272400,254.032593 139.165878,255.858215 
z"/>
<path fill="#F07840" opacity="1.000000" stroke="none" 
	d="
M256.306183,293.912170 
	C263.161041,274.683472 270.034698,255.461441 276.863159,236.223373 
	C280.584930,225.737854 284.544678,215.320465 287.768738,204.681915 
	C289.245605,199.808731 291.459534,197.699295 296.465240,198.627197 
	C297.578705,198.833588 298.763123,198.657440 300.437866,198.657440 
	C300.051270,200.197418 299.844574,201.413315 299.443420,202.561264 
	C289.252472,231.722610 279.038483,260.875916 268.835022,290.032898 
	C265.691589,299.015503 265.700317,299.018555 255.600952,297.555328 
	C255.819321,296.580597 256.035278,295.616608 256.278564,294.259796 
	C256.305908,293.866943 256.306183,293.912170 256.306183,293.912170 
M290.189301,209.739090 
	C280.422638,237.691116 270.655945,265.643158 260.653351,294.270416 
	C264.263062,292.404968 294.569489,207.825851 293.285034,202.165039 
	C292.354187,204.452225 291.423340,206.739426 290.189301,209.739090 
z"/>
<path fill="#F07840" opacity="1.000000" stroke="none" 
	d="
M307.179901,277.363403 
	C304.709320,284.460846 302.356598,291.183838 300.033386,297.822540 
	C296.347046,297.822540 293.056763,297.822540 289.285309,297.822540 
	C293.707184,285.138123 297.999939,272.779755 302.323547,260.432159 
	C308.577606,242.571457 314.864929,224.722397 321.116425,206.860809 
	C324.251038,197.904663 324.229401,197.897095 334.701965,199.097855 
	C325.536987,225.147552 316.417389,251.068253 307.179901,277.363403 
M314.791656,244.265717 
	C319.576019,230.483871 324.360382,216.702042 329.144745,202.920197 
	C328.408508,202.667130 327.672302,202.414062 326.936066,202.161011 
	C316.233734,232.660904 305.531403,263.160797 294.829041,293.660706 
	C295.570953,293.935364 296.312836,294.210022 297.054749,294.484650 
	C302.860321,277.985504 308.665894,261.486359 314.791656,244.265717 
z"/>
<path fill="#8139FF" opacity="1.000000" stroke="none" 
	d="
M192.672180,284.343903 
	C193.258072,284.823914 193.843964,285.303894 194.424469,286.239899 
	C192.621307,286.805878 190.820328,286.878784 189.026367,287.033295 
	C184.984863,287.381317 180.946854,287.769653 176.907410,288.141602 
	C175.074051,287.584259 173.240692,287.026947 171.115768,286.380981 
	C174.751389,267.148712 178.372711,247.992142 182.348785,228.430450 
	C183.076324,228.039108 183.449142,228.052872 183.804916,228.464935 
	C183.479736,233.243744 183.171600,237.624283 182.532990,242.269241 
	C182.170532,248.797836 181.481842,255.145508 182.265182,261.306000 
	C183.356110,269.885284 184.525543,278.794189 192.672180,284.343903 
z"/>
<path fill="#B894FF" opacity="1.000000" stroke="none" 
	d="
M217.001038,279.531982 
	C215.450409,278.486816 212.882034,277.303619 212.388794,275.540070 
	C209.962524,266.864868 207.737198,258.100311 206.101303,249.245285 
	C203.803070,236.805237 202.087112,224.257599 200.087433,211.350494 
	C205.181808,214.333237 207.857910,219.136353 208.750839,225.191940 
	C211.403503,243.181442 214.199799,261.149780 217.001038,279.531982 
z"/>
<path fill="#D1BBFF" opacity="1.000000" stroke="none" 
	d="
M192.723663,283.945862 
	C184.525543,278.794189 183.356110,269.885284 182.265182,261.306000 
	C181.481842,255.145508 182.170532,248.797836 182.853882,242.035095 
	C184.995743,233.949097 186.486267,226.361664 187.976791,218.774216 
	C188.330795,218.838867 188.684814,218.903519 189.038834,218.968170 
	C187.889130,228.260971 186.739426,237.553772 185.589706,246.846588 
	C185.903946,246.880020 186.218170,246.913467 186.532394,246.946915 
	C188.006607,241.301834 189.480820,235.656754 190.955032,230.011688 
	C191.320862,231.433060 191.686691,232.854416 191.737045,234.793182 
	C191.647720,235.907852 191.873886,236.505157 192.100067,237.102448 
	C192.234085,237.694122 192.368118,238.285782 192.493011,239.175552 
	C191.641571,240.511597 190.188400,241.474319 190.049911,242.598923 
	C188.349472,256.406616 187.718399,270.177673 192.723663,283.945862 
M185.743729,252.178345 
	C185.641556,252.022156 185.539398,251.865952 185.437241,251.709747 
	C185.455368,251.932037 185.473495,252.154312 185.743729,252.178345 
z"/>
<path fill="#B894FF" opacity="1.000000" stroke="none" 
	d="
M239.976212,287.449463 
	C242.696350,287.099487 245.487457,287.099487 248.888245,287.099487 
	C248.169220,281.149963 247.609879,275.801147 246.863205,270.478638 
	C244.633301,254.583206 242.360184,238.693649 240.029297,222.812759 
	C239.573914,219.710098 238.783188,216.656662 238.207336,213.175217 
	C239.491776,213.936539 240.716034,215.103149 242.030746,216.991180 
	C245.672256,241.570328 249.223312,265.428070 252.884644,290.026703 
	C248.541382,290.026703 245.759674,290.026703 242.977951,290.026703 
	C242.001022,289.284271 241.024109,288.541840 239.976212,287.449463 
z"/>
<path fill="#DDCDFF" opacity="1.000000" stroke="none" 
	d="
M243.045593,290.410461 
	C245.759674,290.026703 248.541382,290.026703 252.884644,290.026703 
	C249.223312,265.428070 245.672256,241.570328 242.131256,217.305588 
	C243.733841,220.175034 246.257401,223.313705 246.765930,226.750534 
	C249.785843,247.160324 252.329758,267.640411 255.067322,288.092316 
	C255.286255,289.727966 255.759750,291.329559 256.210571,293.429565 
	C256.306183,293.912170 256.305908,293.866943 256.330444,293.883911 
	C253.447601,293.934387 250.475723,294.342773 247.657394,293.858185 
	C246.015610,293.575897 244.619736,291.863312 243.045593,290.410461 
z"/>
<path fill="#DDCDFF" opacity="1.000000" stroke="none" 
	d="
M226.823273,216.942337 
	C227.198853,218.072952 227.574448,219.203568 227.906952,220.691101 
	C226.545990,222.136032 224.114304,223.199814 224.090027,224.315964 
	C223.925659,231.870911 223.703827,239.503403 224.581726,246.983948 
	C225.929703,258.469879 228.290054,269.833435 229.919708,281.291718 
	C230.510605,285.446472 230.420822,289.949341 225.674393,292.042023 
	C220.799042,294.191467 216.276794,293.170654 212.717484,289.201477 
	C216.666977,288.251648 220.276138,287.618164 224.303192,286.986633 
	C225.820724,285.521851 227.913925,284.009521 227.849136,282.596100 
	C227.558762,276.260468 226.843079,269.923767 225.871780,263.650787 
	C225.517746,261.364258 224.027695,259.253662 223.033829,256.666077 
	C222.692688,254.476181 222.373596,252.683029 222.348877,250.653931 
	C222.604996,248.958389 222.633606,247.493408 222.516846,246.040131 
	C222.039993,240.104950 221.048706,234.163666 221.170425,228.243622 
	C221.259262,223.922729 222.121201,219.286285 226.823273,216.942337 
z"/>
<path fill="#B894FF" opacity="1.000000" stroke="none" 
	d="
M223.885315,286.984650 
	C220.276138,287.618164 216.666977,288.251648 212.634491,288.858521 
	C211.219193,288.085236 210.227203,287.338593 209.108368,286.306580 
	C213.425552,285.592377 218.712677,287.463409 221.492767,282.224243 
	C222.705093,279.939606 223.583755,277.136810 223.525955,274.594086 
	C223.422546,270.045258 222.494873,265.515167 222.206955,260.532654 
	C222.939590,260.097107 223.377045,260.106110 223.856476,260.524414 
	C224.112900,262.062408 224.404449,263.182648 224.529312,264.321198 
	C225.360779,271.903198 228.139816,279.546600 223.885315,286.984650 
z"/>
<path fill="#DDCDFF" opacity="1.000000" stroke="none" 
	d="
M197.847656,289.879028 
	C199.189041,291.055664 200.530426,292.232300 202.504898,293.964294 
	C194.724319,293.964294 187.430862,294.053711 180.147491,293.823334 
	C179.434418,293.800781 178.783569,291.810974 178.578781,290.345978 
	C185.318359,289.931427 191.583008,289.905212 197.847656,289.879028 
z"/>
<path fill="#D1BBFF" opacity="1.000000" stroke="none" 
	d="
M223.814484,260.115112 
	C223.377045,260.106110 222.939590,260.097107 222.173248,260.101257 
	C221.579666,259.607880 221.314987,259.101288 221.016663,257.917755 
	C220.974426,256.487061 220.965836,255.733322 220.957260,254.979568 
	C220.958527,254.546967 220.959793,254.114380 220.959793,253.016907 
	C220.628616,251.567520 220.298706,250.782990 219.968811,249.998459 
	C219.958237,249.269791 219.947662,248.541107 219.922729,247.142136 
	C219.606079,245.981232 219.303802,245.490616 219.001526,245.000000 
	C218.982971,243.958603 218.964417,242.917191 218.931107,241.182861 
	C218.638016,239.993439 218.359665,239.496964 218.081314,239.000488 
	C218.035675,237.312271 217.990036,235.624039 217.950256,233.041656 
	C217.951340,230.021973 217.583130,227.817459 218.024155,225.788879 
	C218.744598,222.475052 219.992355,219.275879 221.045288,216.431213 
	C220.689178,223.147507 219.916519,229.468811 220.044647,235.771820 
	C220.147308,240.822723 221.343582,245.851364 222.054504,250.889893 
	C222.373596,252.683029 222.692688,254.476181 223.060867,256.979431 
	C223.344803,258.498077 223.579651,259.306610 223.814484,260.115112 
z"/>
<path fill="#F2EAFF" opacity="1.000000" stroke="none" 
	d="
M221.017670,216.028336 
	C219.992355,219.275879 218.744598,222.475052 218.024155,225.788879 
	C217.583130,227.817459 217.951340,230.021973 217.926804,232.620499 
	C217.466339,234.101822 217.035217,235.110138 216.298706,236.832626 
	C215.399246,235.119995 214.717926,233.822739 214.461060,232.131195 
	C215.217651,230.400803 215.712051,229.081390 215.851273,227.725510 
	C216.254456,223.798798 216.514908,219.857422 216.932785,215.596863 
	C217.022034,214.831039 217.009872,214.390198 216.997711,213.949341 
	C216.997726,213.949341 217.011963,214.001831 216.986664,214.010712 
	C218.730026,213.277863 220.498688,212.536148 222.492752,212.192688 
	C222.153259,213.731735 221.588379,214.872513 221.013153,216.009552 
	C221.002808,216.005798 221.017670,216.028336 221.017670,216.028336 
z"/>
<path fill="#B894FF" opacity="1.000000" stroke="none" 
	d="
M197.685608,289.606873 
	C191.583008,289.905212 185.318359,289.931427 178.600250,289.916565 
	C177.817062,289.455231 177.487366,289.034973 177.032532,288.378143 
	C180.946854,287.769653 184.984863,287.381317 189.026367,287.033295 
	C190.820328,286.878784 192.621307,286.805878 194.678192,286.370239 
	C195.799362,287.141327 196.661453,288.238037 197.685608,289.606873 
z"/>
<path fill="#A974FE" opacity="1.000000" stroke="none" 
	d="
M216.831390,215.921814 
	C216.514908,219.857422 216.254456,223.798798 215.851273,227.725510 
	C215.712051,229.081390 215.217651,230.400803 214.497330,231.769745 
	C214.383316,226.711380 214.657486,221.620148 215.526886,216.236359 
	C216.358536,215.936478 216.594955,215.929138 216.831390,215.921814 
z"/>
<path fill="#A974FE" opacity="1.000000" stroke="none" 
	d="
M183.821960,228.066650 
	C183.449142,228.052872 183.076324,228.039108 182.424316,228.043640 
	C182.876160,223.251816 183.607193,218.441666 184.523178,213.215240 
	C184.962540,212.850388 185.216446,212.904221 185.703888,213.290207 
	C185.980896,214.099274 186.023865,214.578598 185.998383,215.458374 
	C185.227295,219.928116 184.524628,223.997391 183.821960,228.066650 
z"/>
<path fill="#F2EAFF" opacity="1.000000" stroke="none" 
	d="
M217.738037,238.999313 
	C218.359665,239.496964 218.638016,239.993439 218.899063,240.793457 
	C217.841507,240.978928 216.801224,240.860870 215.760956,240.742798 
	C216.305573,240.161255 216.850174,239.579697 217.738037,238.999313 
z"/>
<path fill="#F2EAFF" opacity="1.000000" stroke="none" 
	d="
M219.625885,249.996567 
	C220.298706,250.782990 220.628616,251.567520 220.936798,252.693085 
	C219.751663,252.354919 218.588272,251.675720 217.424881,250.996506 
	C218.044235,250.662552 218.663589,250.328613 219.625885,249.996567 
z"/>
<path fill="#F2EAFF" opacity="1.000000" stroke="none" 
	d="
M220.591400,254.985657 
	C220.965836,255.733322 220.974426,256.487061 220.991882,257.617371 
	C221.000778,257.993927 220.557343,258.013550 220.335663,258.023987 
	C219.452560,257.494537 218.791107,256.954590 218.129654,256.414673 
	C218.828278,255.940353 219.526917,255.466049 220.591400,254.985657 
z"/>
<path fill="#F2EAFF" opacity="1.000000" stroke="none" 
	d="
M218.701569,245.029755 
	C219.303802,245.490616 219.606079,245.981232 219.891785,246.778900 
	C219.057678,246.976669 218.240143,246.867371 217.422623,246.758057 
	C217.748962,246.191879 218.075287,245.625702 218.701569,245.029755 
z"/>
<path fill="#8139FF" opacity="1.000000" stroke="none" 
	d="
M216.932770,215.596863 
	C216.594955,215.929138 216.358536,215.936478 215.767242,215.953796 
	C215.698822,215.302597 215.985291,214.641434 216.634735,213.964813 
	C217.009872,214.390198 217.022034,214.831039 216.932770,215.596863 
z"/>
<path fill="#FFFFFF" opacity="1.000000" stroke="none" 
	d="
M183.804916,228.464935 
	C184.524628,223.997391 185.227295,219.928116 186.352432,215.412354 
	C187.250000,214.924698 187.725082,214.883560 188.200180,214.842438 
	C189.127304,219.606003 190.054443,224.369568 190.968292,229.572418 
	C189.480820,235.656754 188.006607,241.301834 186.532394,246.946915 
	C186.218170,246.913467 185.903946,246.880020 185.589706,246.846588 
	C186.739426,237.553772 187.889130,228.260971 189.038834,218.968170 
	C188.684814,218.903519 188.330795,218.838867 187.976791,218.774216 
	C186.486267,226.361664 184.995743,233.949097 183.184357,241.770691 
	C183.171600,237.624283 183.479736,233.243744 183.804916,228.464935 
z"/>
<path fill="#D1BBFF" opacity="1.000000" stroke="none" 
	d="
M188.186310,214.498795 
	C187.725082,214.883560 187.250000,214.924698 186.420868,215.011871 
	C186.023865,214.578598 185.980896,214.099274 185.896973,213.261169 
	C186.628143,213.319946 187.400284,213.737549 188.186310,214.498795 
z"/>
<path fill="#FFFFFF" opacity="1.000000" stroke="none" 
	d="
M192.091797,236.758377 
	C191.873886,236.505157 191.647720,235.907852 191.681244,235.178589 
	C191.988464,235.502502 192.035995,235.958405 192.091797,236.758377 
z"/>
<path fill="#FFFFFF" opacity="1.000000" stroke="none" 
	d="
M222.348877,250.653931 
	C221.343582,245.851364 220.147308,240.822723 220.044647,235.771820 
	C219.916519,229.468811 220.689178,223.147507 221.045288,216.431213 
	C221.017670,216.028336 221.002808,216.005798 221.393402,216.005280 
	C223.252182,215.617432 224.720383,215.230087 226.188583,214.842743 
	C226.421646,215.349747 226.654694,215.856735 226.855499,216.653030 
	C222.121201,219.286285 221.259262,223.922729 221.170425,228.243622 
	C221.048706,234.163666 222.039993,240.104950 222.516846,246.040131 
	C222.633606,247.493408 222.604996,248.958389 222.348877,250.653931 
z"/>
<path fill="#D1BBFF" opacity="1.000000" stroke="none" 
	d="
M226.113083,214.519455 
	C224.720383,215.230087 223.252182,215.617432 221.403748,216.009033 
	C221.588379,214.872513 222.153259,213.731735 222.860260,212.293854 
	C224.014114,212.729904 225.025848,213.463028 226.113083,214.519455 
z"/>
<path fill="#FDF0EA" opacity="1.000000" stroke="none" 
	d="
M290.340881,209.382843 
	C291.423340,206.739426 292.354187,204.452225 293.285034,202.165039 
	C294.569489,207.825851 264.263062,292.404968 260.653351,294.270416 
	C270.655945,265.643158 280.422638,237.691116 290.340881,209.382843 
z"/>
<path fill="#FDF0EA" opacity="1.000000" stroke="none" 
	d="
M314.631561,244.626450 
	C308.665894,261.486359 302.860321,277.985504 297.054749,294.484650 
	C296.312836,294.210022 295.570953,293.935364 294.829041,293.660706 
	C305.531403,263.160797 316.233734,232.660904 326.936066,202.161011 
	C327.672302,202.414062 328.408508,202.667130 329.144745,202.920197 
	C324.360382,216.702042 319.576019,230.483871 314.631561,244.626450 
z"/>
<path fill="#FFFFFF" opacity="1.000000" stroke="none" 
	d="
M185.617676,252.277466 
	C185.473495,252.154312 185.455368,251.932037 185.437241,251.709747 
	C185.539398,251.865952 185.641556,252.022156 185.617676,252.277466 
z"/>
<path fill="#F2EAFF" opacity="1.000000" stroke="none" 
	d="
M223.856476,260.524414 
	C223.579651,259.306610 223.344803,258.498077 223.082932,257.376190 
	C224.027695,259.253662 225.517746,261.364258 225.871780,263.650787 
	C226.843079,269.923767 227.558762,276.260468 227.849136,282.596100 
	C227.913925,284.009521 225.820724,285.521851 224.303192,286.986633 
	C228.139816,279.546600 225.360779,271.903198 224.529312,264.321198 
	C224.404449,263.182648 224.112900,262.062408 223.856476,260.524414 
z"/>
</svg>